<ttFont>
          <CharString index="0">
            -10 rmoveto
            78 53 32 50 25 hvcurveto
            9 -31 15 -28 28 -21 34 33 rcurveline
            -38 callsubr
            203 vlineto
            101 -48 60 -111 -68 -68 -30 -34 -39 vhcurveto
            -86 callsubr
            -94 69 -49 91 hvcurveto
            52 vmoveto
            -65 -38 25 66 81 79 15 75 hvcurveto
            97 return
          </CharString>
          <CharString index="1">
            210 -107 callsubr
            return
          </CharString>
          <CharString index="2">
            -24 20 -20 24 25 20 20 24 25 -20 20 -25 -24 -20 -20 -25 vhcurveto
            return
          </CharString>
          <CharString index="3">
            -10 55 594 -29 callsubr
            hintmask 10101100
            -65 callsubr
            hintmask 11001100
            -82 callsubr
            hintmask 10011100
            -88 callsubr
            hintmask 11001100
            -52 callsubr
            hintmask 10011100
            11 callsubr
            return
          </CharString>
          <CharString index="4">
            -42 callsubr
            148 -99 110 -149 -96 callsubr
            return
          </CharString>
          <CharString index="5">
            238 200 rmoveto
            -41 callsubr
            -131 -86 -123 -138 -164 78 -93 150 -76 callsubr
            157 259 -73 callsubr
            return
          </CharString>
          <CharString index="6">
            46 -10 52 456 92 callsubr
            69 55 268 40 callsubr
            hintmask 10111000
            486 25 rmoveto
            -38 callsubr
            hintmask 11011000
            -66 callsubr
            hintmask 10111000
            -85 callsubr
            return
          </CharString>
          <CharString index="7">
            1 callsubr
            hstem
            60 57 284 57 vstem
            -102 callsubr
            return
          </CharString>
          <CharString index="8">
            rmoveto
            -105 callsubr
            221 -92 callsubr
          </CharString>
          <CharString index="9">
            307 703 rmoveto
            -297 -703 rlineto
            64 hlineto
            -57 callsubr
            -299 703 rlineto
            -34 -186 -79 callsubr
            return
          </CharString>
          <CharString index="10">
            -106 callsubr
            -52 hlineto
            -87 -67 -48 -81 vhcurveto
            return
          </CharString>
          <CharString index="11">
            -74 callsubr
            466 vmoveto
            115 76 -81 -123 -124 -76 -86 -115 -58 callsubr
            hvcurveto
            return
          </CharString>
          <CharString index="12">
            57 vstem
            -103 callsubr
            return
          </CharString>
          <CharString index="13">
            107 9 callsubr
            hstem
            51 callsubr
            -95 callsubr
            return
          </CharString>
          <CharString index="14">
            -60 vlineto
            -53 -14 -38 -26 -47 callsubr
            20 61 55 vvcurveto
            60 vlineto
            18 -13 15 -19 -18 -14 -15 -18 vhcurveto
            return
          </CharString>
          <CharString index="15">
            hmoveto
            -105 callsubr
            endchar
          </CharString>
          <CharString index="16">
            -2 callsubr
            hstem
            10 615 vstem
            -98 callsubr
            return
          </CharString>
          <CharString index="17">
            61 vstem
            90 684 rmoveto
            -417 vlineto
            -164 105 -113 163 160 107 113 164 vhcurveto
            417 -61 -417 vlineto
            -138 -83 -84 -124 -123 -83 84 138 vhcurveto
            417 vlineto
            return
          </CharString>
          <CharString index="18">
            225 -10 55 639 -20 hstem
            90 61 413 -90 callsubr
            return
          </CharString>
          <CharString index="19">
            135 -58 99 -41 53 vhcurveto
            48 3 50 15 31 43 rrcurveto
            -90 -348 rmoveto
            -69 callsubr
            vhcurveto
            return
          </CharString>
          <CharString index="20">
            -93 callsubr
            endchar
          </CharString>
          <CharString index="21">
            27 -42 rlineto
            26 35 60 28 53 hhcurveto
            72 32 -38 -82 hvcurveto
            -56 -97 vlineto
            -103 -108 -35 -112 return
          </CharString>
          <CharString index="22">
            39 -5 64 -24 37 vhcurveto
            -48 -16 rlineto
            17 -39 5 -40 -39 -65 -8 -59 -95 vvcurveto
            -102 47 -59 116 67 55 31 66 43 vhcurveto
            7 -37 15 -34 33 -24 rrcurveto
            return
          </CharString>
          <CharString index="23">
            rmoveto
            -109 122 rlineto
            20 -17 -16 12 -15 hhcurveto
            -15 -16 -12 -20 -17 hvcurveto
            -109 -123 37 -33 120 134 120 -133 rlineto
            endchar
          </CharString>
          <CharString index="24">
            rmoveto
            -109 102 rlineto
            18 -19 -15 14 -14 hhcurveto
            -14 -15 -14 -18 -19 hvcurveto
            -109 -103 37 -37 120 113 120 -112 rlineto
            endchar
          </CharString>
          <CharString index="25">
            -68 callsubr
            -15 callsubr
            hvcurveto
            return
          </CharString>
          <CharString index="26">
            rmoveto
            -105 callsubr
            -221 -92 callsubr
          </CharString>
          <CharString index="27">
            4 callsubr
            35 callsubr
            -75 callsubr
            return
          </CharString>
          <CharString index="28">
            rmoveto
            10 24 9 32 5 22 5 -21 9 -32 11 -25 99 -233 rcurveline
            -247 hlineto
            return
          </CharString>
          <CharString index="29">
            12 -14 callsubr
            hstem
            66 callsubr
            vstem
            -97 callsubr
            return
          </CharString>
          <CharString index="30">
            55 94 callsubr
            -71 callsubr
            55 -11 61 -50 36 vhcurveto
            return
          </CharString>
          <CharString index="31">
            -67 callsubr
            -52 55 103 -12 hvcurveto
            return
          </CharString>
          <CharString index="32">
            563 -59 callsubr
            -448 -684 468 hlineto
            return
          </CharString>
          <CharString index="33">
            -150 -99 28 callsubr
            -149 99 -108 83 callsubr
            return
          </CharString>
          <CharString index="34">
            -43 callsubr
            -121 hlineto
            103 1 62 104 97 hhcurveto
            return
          </CharString>
          <CharString index="35">
            -31 26 -25 30 32 25 25 31 31 -25 26 -32 -30 -26 -26 -31 vhcurveto
            return
          </CharString>
          <CharString index="36">
            -34 callsubr
            -353 55 353 vlineto
            return
          </CharString>
          <CharString index="37">
            -106 callsubr
            -59 hlineto
            -83 -3 -66 -45 -79 hhcurveto
            return
          </CharString>
          <CharString index="38">
            -27 callsubr
            -25 callsubr
            return
          </CharString>
          <CharString index="39">
            -35 callsubr
            -199 134 -153 204 return
          </CharString>
          <CharString index="40">
            72 63 26 32 47 hvcurveto
            -26 42 rlineto
            -27 -50 -50 -21 -56 hhcurveto
            -104 return
          </CharString>
          <CharString index="41">
            -62 callsubr
            93 8 46 63 vvcurveto
            return
          </CharString>
          <CharString index="42">
            732 724 rmoveto
            -26 -28 -38 -14 -53 -62 -69 10 -84 hhcurveto
            return
          </CharString>
          <CharString index="43">
            24 callsubr
            hstemhm
            35 456 59 callsubr
            33 callsubr
            hintmask 11101000
            203 636 rlineto
            hintmask 11011000
            -61 callsubr
            return
          </CharString>
          <CharString index="44">
            -20 hstem
            95 55 vstem
            -77 callsubr
            return
          </CharString>
          <CharString index="45">
            354 -55 -353 vlineto
            -64 -47 -42 -39 -71 hhcurveto
            -76 -32 38 82 hvcurveto
            return
          </CharString>
          <CharString index="46">
            -52 17 -150 -468 -50 7 -29 39 -16 55 21 callsubr
            21 -73 41 -53 72 -8 rlinecurve
            -38 -119 rlineto
            -51 -17 -37 -29 -73 hhcurveto
            return
          </CharString>
          <CharString index="47">
            32 callsubr
            hstemhm
            246 61 59 callsubr
            39 callsubr
            hintmask 11101000
            15 callsubr
            hintmask 11011000
            -37 callsubr
            return
          </CharString>
          <CharString index="48">
            -44 callsubr
            237 387 57 return
          </CharString>
          <CharString index="49">
            -116 -76 83 125 123 76 83 116 return
          </CharString>
          <CharString index="50">
            95 227 rlineto
            295 hlineto
            97 -227 rlineto
            64 hlineto
            return
          </CharString>
          <CharString index="51">
            rmoveto
            179 123 130 176 174 -123 129 -179 -181 -123 -131 -175 -177 123 -126 181 hvcurveto
            561 vmoveto
            146 102 -100 -153 -153 -102 -108 -146 -148 -102 104 155 151 102 104 148 hvcurveto
            endchar
          </CharString>
          <CharString index="52">
            rmoveto
            -216 191 216 191 -37 41 -206 -184 rlineto
            -20 -17 -12 -16 -15 vvcurveto
            -15 12 -16 20 -17 vhcurveto
            206 -184 rlineto
            return
          </CharString>
          <CharString index="53">
            rmoveto
            206 184 rlineto
            20 17 12 16 15 vvcurveto
            15 -12 16 -20 17 vhcurveto
            -206 184 -37 -41 216 -191 -216 -191 rlineto
            return
          </CharString>
          <CharString index="54">
            6 callsubr
            125 hmoveto
            -87 callsubr
          </CharString>
          <CharString index="55">
            -26 callsubr
            59 55 -6 -3 49 vhcurveto
            return
          </CharString>
          <CharString index="56">
            -239 21 -21 684 -20 hstem
            95 61 -16 callsubr
            return
          </CharString>
          <CharString index="57">
            35 -59 hhcurveto
            -60 -41 -19 -54 -19 hvcurveto
            endchar
          </CharString>
          <CharString index="58">
            rmoveto
            172 110 -36 49 -158 -125 rlineto
            endchar
          </CharString>
          <CharString index="59">
            -35 57 hhcurveto
            60 41 19 54 19 hvcurveto
            -49 return
          </CharString>
          <CharString index="60">
            -28 vhcurveto
            34 -33 rlineto
            50 36 return
          </CharString>
          <CharString index="61">
            50 62 -48 callsubr
            21 rlineto
            -29 -14 -25 -7 -33 hhcurveto
            return
          </CharString>
          <CharString index="62">
            50 42 -48 callsubr
            18 rlineto
            -29 -14 -25 -7 -33 hhcurveto
            return
          </CharString>
          <CharString index="63">
            57 rmoveto
            -407 276 317 57 -317 return
          </CharString>
          <CharString index="64">
            rmoveto
            73 51 -41 -62 -47 -26 -57 -137 hvcurveto
            return
          </CharString>
          <CharString index="65">
            299 -10 rmoveto
            149 99 110 150 return
          </CharString>
          <CharString index="66">
            111 109 38 118 94 -82 58 -99 return
          </CharString>
          <CharString index="67">
            rmoveto
            200 43 -146 hlineto
            11 23 21 17 22 15 rrcurveto
            38 27 38 29 49 vvcurveto
            50 -25 34 -64 -18 -40 -2 -2 -23 vhcurveto
            -42 vlineto
            1 22 48 2 14 hhcurveto
            27 15 -14 -26 -27 -27 -21 -30 -21 hvcurveto
            -40 -29 -43 -34 -67 vvcurveto
            return
          </CharString>
          <CharString index="68">
            rmoveto
            -72 callsubr
            endchar
          </CharString>
          <CharString index="69">
            -26 28 -13 38 53 vvcurveto
            return
          </CharString>
          <CharString index="70">
            -97 289 -59 -15 97 -289 17 -53 38 -54 59 -20 rlinecurve
            -264 61 256 vlineto
            16 21 3 3 14 hvcurveto
            return
          </CharString>
          <CharString index="71">
            rmoveto
            53 14 38 26 28 vhcurveto
            -34 33 rlineto
            -50 -36 -20 -61 -55 vvcurveto
            -60 vlineto
            -18 13 -15 19 18 14 15 18 vhcurveto
            return
          </CharString>
          <CharString index="72">
            -204 -134 -152 -200 return
          </CharString>
          <CharString index="73">
            26 -28 14 -38 -53 vvcurveto
            return
          </CharString>
          <CharString index="74">
            hhcurveto
            -4 -4 0 3 -13 hvcurveto
            -9 -39 rlineto
            -6 14 10 -1 11 hhcurveto
            18 17 5 8 17 hvcurveto
            -223 48 return
          </CharString>
          <CharString index="75">
            rmoveto
            200 45 -18 58 -194 -63 rlineto
            endchar
          </CharString>
          <CharString index="76">
            -25 21 -21 25 26 21 21 25 26 -21 21 -26 -25 -21 -21 -26 vhcurveto
            return
          </CharString>
          <CharString index="77">
            rmoveto
            -158 125 -36 -49 172 -110 rlineto
            endchar
          </CharString>
          <CharString index="78">
            -13 callsubr
            60 61 554 69 callsubr
            return
          </CharString>
          <CharString index="79">
            rmoveto
            -219 -653 rlineto
            59 hlineto
            218 653 rlineto
            return
          </CharString>
          <CharString index="80">
            -11 callsubr
            -166 return
          </CharString>
          <CharString index="81">
            26 callsubr
            121 165 return
          </CharString>
          <CharString index="82">
            -166 -111 29 callsubr
            return
          </CharString>
          <CharString index="83">
            -241 695 -20 hstem
            100 64 vstem
            100 662 rmoveto
            -87 callsubr
          </CharString>
          <CharString index="84">
            -241 -160 245 hstem
            100 64 vstem
            100 52 rmoveto
            -87 callsubr
          </CharString>
          <CharString index="85">
            -20 -44 18 hlineto
            20 18 2 5 16 hvcurveto
            12 -12 12 -17 -19 vvcurveto
            -35 -21 -12 -39 -30 -47 6 0 vhcurveto
            -43 vlineto
            0 48 -6 30 64 41 28 60 33 -16 24 -15 16 vhcurveto
            return
          </CharString>
          <CharString index="86">
            653 -28 callsubr
            return
          </CharString>
          <CharString index="87">
            -34 -33 rcurveline
            -71 callsubr
            return
          </CharString>
          <CharString index="88">
            20 -4 38 2 -34 vvcurveto
            -38 -25 -19 -25 -47 callsubr
            21 52 43 vvcurveto
            return
          </CharString>
          <CharString index="89">
            rmoveto
            -194 63 -18 -58 200 -45 rlineto
            endchar
          </CharString>
          <CharString index="90">
            rmoveto
            72 48 64 84 84 -48 65 -72 -73 -47 -64 -85 -84 47 -64 73 hvcurveto
            257 vmoveto
            40 26 -45 -64 -63 -26 -45 -40 -40 -26 45 63 64 26 45 40 hvcurveto
            return
          </CharString>
          <CharString index="91">
            vstem
            95 684 rmoveto
            -684 61 684 vlineto
            return
          </CharString>
          <CharString index="92">
            203 -12 callsubr
            return
          </CharString>
          <CharString index="93">
            -10 52 187 51 176 52 return
          </CharString>
          <CharString index="94">
            -7 callsubr
            hstemhm
            return
          </CharString>
          <CharString index="95">
            134 152 200 return
          </CharString>
          <CharString index="96">
            -176 -111 -121 return
          </CharString>
          <CharString index="97">
            rmoveto
            29 14 25 7 33 hhcurveto
            return
          </CharString>
          <CharString index="98">
            58 callsubr
            214 -63 callsubr
            return
          </CharString>
          <CharString index="99">
            10 12 6 16 21 vvcurveto
            50 -24 29 -64 -16 -36 -1 -2 -25 vhcurveto
            -42 vlineto
            5 15 1 7 hhcurveto
            1 19 24 1 9 hhcurveto
            27 16 -11 -25 hvcurveto
            endchar
          </CharString>
          <CharString index="100">
            55 -10 37 callsubr
            return
          </CharString>
          <CharString index="101">
            -255 21 -21 505 -63 callsubr
            return
          </CharString>
          <CharString index="102">
            121 342 rmoveto
            29 3 29 6 26 vhcurveto
            258 hlineto
            153 63 54 75 83 -73 56 -143 -195 -133 -153 -199 hvcurveto
            return
          </CharString>
          <CharString index="103">
            -52 -38 -50 callsubr
          </CharString>
          <CharString index="104">
            -52 -58 -50 callsubr
          </CharString>
          <CharString index="105">
            145 21 -21 227 57 return
          </CharString>
          <CharString index="106">
            rmoveto
            -20 -30 -31 -17 -38 -33 callsubr
            return
          </CharString>
          <CharString index="107">
            hmoveto
            -18 46 -6 38 44 65 8 59 95 vvcurveto
            102 -52 59 -116 return
          </CharString>
          <CharString index="108">
            30 34 callsubr
            207 49 return
          </CharString>
          <CharString index="109">
            -33 -34 27 -37 40 -16 42 -6 rlinecurve
            return
          </CharString>
          <CharString index="110">
            -10 -62 hhcurveto
            -53 -38 14 26 -28 hvcurveto
            return
          </CharString>
          <CharString index="111">
            103 0 57 276 57 95 callsubr
            return
          </CharString>
          <CharString index="112">
            -461 550 rlineto
            -19 -694 61 455 hlineto
            31 -4 41 -3 34 vhcurveto
            25 -37 30 -42 24 -27 286 -332 rcurveline
            return
          </CharString>
          <CharString index="113">
            rmoveto
            -93 callsubr
            return
          </CharString>
          <CharString index="114">
            -52 vmoveto
            104 52 -100 -108 -122 -70 -84 -107 -54 -51 6 3 -24 hvcurveto
            277 vlineto
            86 9 75 42 66 hhcurveto
            endchar
          </CharString>
          <CharString index="115">
            -93 -8 -46 -63 vvcurveto
            -39 5 -55 21 -40 vhcurveto
            return
          </CharString>
          <CharString index="116">
            -10 27 callsubr
            return
          </CharString>
          <CharString index="117">
            vhcurveto
            hintmask 11010110
            -84 -12 3 callsubr
            hintmask 11001110
            2 callsubr
            -631 61 return
          </CharString>
          <CharString index="118">
            21 -21 94 -100 -167 vvcurveto
            return
          </CharString>
          <CharString index="119">
            -38 -82 hvcurveto
            8 callsubr
            return
          </CharString>
          <CharString index="120">
            492 0 callsubr
            -67 -58 -31 -64 -44 vhcurveto
            return
          </CharString>
          <CharString index="121">
            63 46 46 38 71 hhcurveto
            76 37 12 callsubr
            endchar
          </CharString>
          <CharString index="122">
            -57 17 -134 -385 -61 1 -40 36 -19 60 rlinecurve
            return
          </CharString>
          <CharString index="123">
            rlineto
            -23 -32 -32 -12 -26 hhcurveto
            -44 -36 7 13 -38 hvcurveto
            return
          </CharString>
          <CharString index="124">
            -7 35 -16 34 -32 23 -20 callsubr
            2 vlineto
            return
          </CharString>
          <CharString index="125">
            rmoveto
            36 39 14 29 40 hvcurveto
            -25 44 16 callsubr
            -80 return
          </CharString>
          <CharString index="126">
            297 rmoveto
            99 54 48 callsubr
            -242 hlineto
            99 42 88 62 112 hhcurveto
            return
          </CharString>
          <CharString index="127">
            1 162 rmoveto
            33 18 -24 -35 -36 -20 -24 -33 -33 -18 24 36 35 20 24 33 hvcurveto
            endchar
          </CharString>
          <CharString index="128">
            rlinecurve
            -105 367 -54 -15 105 -367 return
          </CharString>
          <CharString index="129">
            26 callsubr
            -122 -175 -11 callsubr
            -176 -86 -60 2 3 -41 hvcurveto
            return
          </CharString>
          <CharString index="130">
            rmoveto
            56 161 158 51 -158 160 -56 -160 -158 -51 158 hlineto
            endchar
          </CharString>
          <CharString index="131">
            26 -261 49 220 -21 499 -20 37 -20 return
          </CharString>
          <CharString index="132">
            -12 callsubr
            199 -134 153 return
          </CharString>
          <CharString index="133">
            176 111 return
          </CharString>
          <CharString index="134">
            52 54 callsubr
            return
          </CharString>
          <CharString index="135">
            -112 -149 return
          </CharString>
          <CharString index="136">
            122 175 return
          </CharString>
          <CharString index="137">
            vvcurveto
            106 -54 75 -142 -40 -89 49 callsubr
            95 4 34 hhcurveto
            return
          </CharString>
          <CharString index="138">
            rmoveto
            31 -26 25 -30 -32 -25 -25 -31 -31 25 -26 32 30 26 26 31 vhcurveto
            endchar
          </CharString>
          <CharString index="139">
            42 21 -21 256 53 385 -20 21 -20 return
          </CharString>
          <CharString index="140">
            116 -261 rmoveto
            94 55 41 70 23 hvcurveto
            return
          </CharString>
          <CharString index="141">
            -10 52 158 52 return
          </CharString>
          <CharString index="142">
            hstem
            95 61 vstem
            return
          </CharString>
          <CharString index="143">
            89 132 89 return
          </CharString>
          <CharString index="144">
            -20 26 -20 return
          </CharString>
          <CharString index="145">
            621 -61 -496 vlineto
            -27 1 -29 3 -26 vhcurveto
            -14 13 -11 13 -9 11 rrcurveto
            return
          </CharString>
          <CharString index="146">
            358 262 rmoveto
            144 415 rlineto
            return
          </CharString>
          <CharString index="147">
            55 hintmask 00000000
            return
          </CharString>
          <CharString index="148">
            117 250 rmoveto
            108 30 98 102 34 55 -4 -4 52 vhcurveto
            return
          </CharString>
          <CharString index="149">
            -13 callsubr
            114 61 return
          </CharString>
          <CharString index="150">
            rmoveto
            52 hlineto
            10 192 rlineto
            -72 hlineto
            return
          </CharString>
          <CharString index="151">
            141 92 112 149 143 -77 114 -136 return
          </CharString>
          <CharString index="152">
            -27 -42 -99 -51 -84 hhcurveto
            -150 -77 29 callsubr
            hvcurveto
            return
          </CharString>
          <CharString index="153">
            -141 -92 28 callsubr
            -143 77 -114 136 return
          </CharString>
          <CharString index="154">
            59 -41 43 -60 -62 -39 -44 -60 return
          </CharString>
          <CharString index="155">
            -29 -55 -49 -34 -28 -119 hvcurveto
            return
          </CharString>
          <CharString index="156">
            -4 -4 -45 vhcurveto
            -52 vlineto
            4 52 return
          </CharString>
          <CharString index="157">
            -229 -21 240 return
          </CharString>
          <CharString index="158">
            50 57 383 return
          </CharString>
          <CharString index="159">
            4 -45 -49 4 -40 hhcurveto
            -162 -34 -150 -111 return
          </CharString>
          <CharString index="160">
            1 44 9 9 84 hhcurveto
            endchar
          </CharString>
          <CharString index="161">
            414 52 return
          </CharString>
          <CharString index="162">
            125 83 94 124 123 -83 94 -125 return
          </CharString>
          <CharString index="163">
            hhcurveto
            15 15 60 callsubr
            return
          </CharString>
          <CharString index="164">
            21 -21 456 52 -3 -20 return
          </CharString>
          <CharString index="165">
            -255 67 callsubr
            return
          </CharString>
          <CharString index="166">
            hintmask 00000000
            hintmask 11011000
            return
          </CharString>
          <CharString index="167">
            2 4 17 hvcurveto
            return
          </CharString>
          <CharString index="168">
            43 27 37 callsubr
            24 -20 hstemhm
            177 48 return
          </CharString>
          <CharString index="169">
            30 567 159 hstem
            163 194 vstem
            return
          </CharString>
          <CharString index="170">
            -99 77 callsubr
            165 61 vstem
            165 return
          </CharString>
          <CharString index="171">
            719 43 rmoveto
            -20 4 -17 8 -16 9 rrcurveto
            return
          </CharString>
          <CharString index="172">
            274 19 -21 23 -21 685 -20 29 -20 return
          </CharString>
          <CharString index="173">
            50 76 callsubr
            return
          </CharString>
          <CharString index="174">
            21 -21 505 -20 return
          </CharString>
          <CharString index="175">
            61 hintmask 00000000
            return
          </CharString>
          <CharString index="176">
            60 hintmask 00000000
            return
          </CharString>
          <CharString index="177">
            -104 -52 100 108 122 70 84 107 return
          </CharString>
          <CharString index="178">
            -26 -186 rlineto
            148 return
          </CharString>
          <CharString index="179">
            50 callsubr
            52 return
          </CharString>
          <CharString index="180">
            34 -27 22 -33 4 vhcurveto
            return
          </CharString>
          <CharString index="181">
            381 52 161 55 return
          </CharString>
          <CharString index="182">
            -13 39 40 -9 51 hhcurveto
            return
          </CharString>
          <CharString index="183">
            57 251 55 return
          </CharString>
          <CharString index="184">
            -70 820 hstem
            return
          </CharString>
          <CharString index="185">
            rmoveto
            91 61 -67 -95 -97 -61 -66 -91 return
          </CharString>
          <CharString index="186">
            -162 -174 57 810 57 hstem
            return
          </CharString>
          <CharString index="187">
            -10 55 594 -7 callsubr
            return
          </CharString>
          <CharString index="188">
            hintmask 0000000000000000
            return
          </CharString>
          <CharString index="189">
            hstem
            50 57 return
          </CharString>
          <CharString index="190">
            150 hvcurveto
            return
          </CharString>
          <CharString index="191">
            hstemhm
            51 callsubr
            57 hintmask 00000000
            return
          </CharString>
          <CharString index="192">
            -142 -97 vlineto
            20 142 rlineto
            return
          </CharString>
          <CharString index="193">
            -100 -59 73 135 hvcurveto
            endchar
          </CharString>
          <CharString index="194">
            hintmask 00000000
            hintmask 11101000
            return
          </CharString>
          <CharString index="195">
            -236 -21 154 return
          </CharString>
          <CharString index="196">
            58 -23 58 hstemhm
            return
          </CharString>
          <CharString index="197">
            55 -20 55 hstemhm
            return
          </CharString>
          <CharString index="198">
            19 464 hstem
            return
          </CharString>
          <CharString index="199">
            37 callsubr
            hstemhm
            return
          </CharString>
          <CharString index="200">
            750 rmoveto
            return
          </CharString>
          <CharString index="201">
            472 rmoveto
            return
          </CharString>
          <CharString index="202">
            237 57 return
          </CharString>
          <CharString index="203">
            hstem
            85 55 return
          </CharString>
        <CharString name=".notdef">
          -190 endchar
        </CharString>
        <CharString name="A">
          -91 callsubr
          endchar
        </CharString>
        <CharString name="AE">
          390 0 57 170 57 49 57 95 callsubr
          hstem
          382 61 vstem
          850 -59 callsubr
          -471 hlineto
          -359 -684 rlineto
          73 hlineto
          117 227 rlineto
          192 -227 468 hlineto
          -503 531 rmoveto
          21 42 10 34 4 16 rrcurveto
          -339 -163 vlineto
          endchar
        </CharString>
        <CharString name="Aacute">
          -91 callsubr
          115 439 -32 callsubr
        </CharString>
        <CharString name="Acircumflex">
          -91 callsubr
          281 472 -83 callsubr
        </CharString>
        <CharString name="Adieresis">
          -2 callsubr
          485 89 hstem
          160 36 callsubr
          vstem
          -98 callsubr
          188 529 -81 callsubr
        </CharString>
        <CharString name="Agrave">
          -91 callsubr
          143 479 -18 callsubr
        </CharString>
        <CharString name="Aring">
          -2 callsubr
          379 -20 179 44 hstem
          216 49 104 49 vstem
          74 hmoveto
          -57 callsubr
          -282 663 rlineto
          46 10 29 40 51 vvcurveto
          47 callsubr
          -51 28 -38 46 -10 vhcurveto
          -280 -663 rlineto
          282 517 -79 callsubr
          125 538 rmoveto
          33 18 -24 -35 -34 -18 -24 -30 -2 hvcurveto
          -10 hlineto
          -30 2 -16 24 34 vvcurveto
          35 20 24 33 vhcurveto
          endchar
        </CharString>
        <CharString name="Atilde">
          -2 callsubr
          483 89 callsubr
          10 615 87 callsubr
          -98 callsubr
          hintmask 11011000
          -29 482 -10 callsubr
          hintmask 11101000
          -46 callsubr
          hintmask 11011000
          -3 callsubr
        </CharString>
        <CharString name="B">
          128 -11 55 -23 -21 334 55 250 -13 callsubr
          119 61 282 60 -28 59 81 callsubr
          hintmask 1011001100000000
          320 694 rmoveto
          hintmask 1010101010000000
          -84 -12 3 callsubr
          hintmask 0110011010000000
          2 callsubr
          -631 vlineto
          hintmask 1011001010000000
          0 74 -11 127 145 88 78 119 81 -50 70 -77 30 vhcurveto
          hintmask 1011001100000000
          59 26 37 49 72 vvcurveto
          107 -83 73 -119 vhcurveto
          hintmask 1011001010000000
          2 -360 rmoveto
          4 hlineto
          99 -2 69 -61 -81 vvcurveto
          -93 -66 -53 -111 -48 -50 2 3 -39 vhcurveto
          285 vlineto
          137 305 rmoveto
          hintmask 1011001100000000
          88 57 -46 -79 -80 -60 -45 -83 hvcurveto
          -139 240 hlineto
          hintmask 1011001010000000
          53 callsubr
        </CharString>
        <CharString name="C">
          154 -10 55 74 callsubr
          hstem
          60 61 420 63 vstem
          -5 callsubr
          328 19 callsubr
          -40 -649 rmoveto
          111 99 56 32 41 hvcurveto
          -26 45 rlineto
          45 callsubr
          -61 hlineto
          -198 90 -154 198 vhcurveto
          endchar
        </CharString>
        <CharString name="Ccedilla">
          154 88 callsubr
          148 -54 54 74 callsubr
          hstemhm
          60 61 192 53 5 55 115 63 81 callsubr
          hintmask 1011110110000000
          -5 callsubr
          0 vmoveto
          hintmask 1011111010000000
          -186 79 -147 174 -17 vhcurveto
          hintmask 1101111010000000
          -95 vlineto
          hintmask 1101110110000000
          -19 callsubr
          hintmask 1101111010000000
          73 callsubr
          hintmask 1011111010000000
          57 vlineto
          103 5 91 51 39 31 -26 45 rcurveline
          45 callsubr
          267 19 callsubr
          endchar
        </CharString>
        <CharString name="D">
          279 -10 55 -24 -21 639 42 callsubr
          474 69 callsubr
          hintmask 01100110
          114 hmoveto
          0 44 -10 204 vhcurveto
          hintmask 10100110
          213 25 callsubr
          -213 hvcurveto
          hintmask 10010110
          -84 -59 3 callsubr
          hintmask 10001110
          2 callsubr
          hintmask 10100110
          248 8 rmoveto
          22 callsubr
          579 vlineto
          1 55 59 9 73 hhcurveto
          endchar
        </CharString>
        <CharString name="E">
          -80 callsubr
          endchar
        </CharString>
        <CharString name="Eacute">
          -80 callsubr
          -243 722 -32 callsubr
        </CharString>
        <CharString name="Ecircumflex">
          -80 callsubr
          -77 755 -83 callsubr
        </CharString>
        <CharString name="Edieresis">
          4 callsubr
          84 89 hstemhm
          95 61 16 36 callsubr
          87 callsubr
          -75 callsubr
          hintmask 11111110
          -391 812 -99 callsubr
        </CharString>
        <CharString name="Egrave">
          -80 callsubr
          -215 762 -18 callsubr
        </CharString>
        <CharString name="Eth">
          289 -10 55 -24 -21 389 57 193 -13 callsubr
          124 61 474 69 callsubr
          hintmask 01110011
          124 hmoveto
          0 44 -10 204 vhcurveto
          hintmask 10110011
          213 25 callsubr
          -213 hvcurveto
          hintmask 10101011
          -84 -59 3 callsubr
          hintmask 10100111
          2 callsubr
          -185 -114 -57 114 vlineto
          183 57 rmoveto
          -122 hlineto
          hintmask 10110011
          183 vlineto
          1 55 59 9 73 hhcurveto
          22 callsubr
          339 122 vlineto
          endchar
        </CharString>
        <CharString name="Euro">
          43 -10 55 192 52 58 52 210 55 -6 -20 hstemhm
          95 68 callsubr
          hintmask 11110100
          31 399 rmoveto
          -11 -52 rlineto
          75 -18 hlineto
          -14 0 -13 1 -13 vhcurveto
          -65 hlineto
          -11 -52 rlineto
          81 hlineto
          -149 20 76 -98 166 hhcurveto
          81 48 24 32 41 hvcurveto
          -26 45 rlineto
          -27 -42 -41 -19 -61 hhcurveto
          -122 -60 72 120 -19 hvcurveto
          218 hlineto
          8 52 rlineto
          -231 hlineto
          -1 13 0 13 14 vvcurveto
          18 241 vlineto
          9 52 rlineto
          -247 hlineto
          134 13 57 76 134 hhcurveto
          34 35 -3 -3 41 hvcurveto
          hintmask 11101100
          55 vlineto
          hintmask 11110100
          4 -45 -32 2 -33 hhcurveto
          -171 -77 -105 -160 -17 hvcurveto
          endchar
        </CharString>
        <CharString name="F">
          63 21 -21 325 57 245 57 35 callsubr
          473 382 rmoveto
          -317 245 387 57 -448 -684 61 325 317 hlineto
          endchar
        </CharString>
        <CharString name="G">
          199 50 callsubr
          55 74 callsubr
          hstemhm
          60 61 426 59 -45 63 hintmask 00000000
          hintmask 11111100
          547 313 rmoveto
          -83 vlineto
          -39 -12 -146 -177 -158 -79 29 callsubr
          29 3 29 6 26 vhcurveto
          278 hlineto
          hintmask 11111010
          153 63 54 75 83 -83 56 -143 -204 -134 -153 -199 -198 90 -154 208 hvcurveto
          hintmask 11111100
          99 57 38 47 33 hvcurveto
          -325 59 563 vlineto
          -208 326 rmoveto
          hintmask 11111010
          99 64 48 callsubr
          -261 hlineto
          hintmask 11111100
          99 42 90 62 119 hhcurveto
          endchar
        </CharString>
        <CharString name="H">
          191 21 -21 327 57 300 -20 hstem
          95 61 369 61 vstem
          525 684 rmoveto
          -300 -369 300 -61 -684 61 327 369 -327 61 684 vlineto
          endchar
        </CharString>
        <CharString name="I">
          -51 callsubr
          endchar
        </CharString>
        <CharString name="Iacute">
          -51 callsubr
          -40 39 -32 callsubr
        </CharString>
        <CharString name="Icircumflex">
          -51 callsubr
          126 72 -83 callsubr
        </CharString>
        <CharString name="Idieresis">
          -239 21 -21 684 -20 105 89 hstem
          -32 89 38 61 33 89 -16 callsubr
          -188 129 -99 callsubr
        </CharString>
        <CharString name="Igrave">
          -51 callsubr
          -12 79 -18 callsubr
        </CharString>
        <CharString name="J">
          -41 -20 53 594 57 hstem
          76 60 163 55 vstem
          354 684 rmoveto
          -319 -57 264 -195 hlineto
          -145 -12 -78 -82 -153 vvcurveto
          -143 66 -62 83 75 54 52 153 vhcurveto
          -129 -152 rmoveto
          -55 -34 53 99 124 52 60 111 11 hvcurveto
          -195 vlineto
          -119 -25 -33 -49 vhcurveto
          endchar
        </CharString>
        <CharString name="K">
          120 21 -21 322 54 284 -20 44 -20 28 -20 hstemhm
          95 68 callsubr
          hintmask 11101100
          590 hmoveto
          -88 246 -21 57 -34 45 -64 19 rlinecurve
          182 293 -52 32 -194 -316 rlineto
          -3 hlineto
          -1 -7 rlineto
          -1 hlineto
          2 7 rlineto
          -160 hlineto
          hintmask 11010100
          308 -61 -684 61 322 150 vlineto
          104 21 -39 -75 25 hvcurveto
          70 -208 rlineto
          endchar
        </CharString>
        <CharString name="L">
          13 0 57 627 -20 35 callsubr
          483 57 rmoveto
          -327 627 -61 -684 388 hlineto
          endchar
        </CharString>
        <CharString name="M">
          324 21 -21 693 -20 hstem
          95 61 502 61 vstem
          535 250 rmoveto
          -34 8 -31 16 -26 19 136 161 rcurveline
          25 29 33 46 28 39 rrcurveto
          -4 -34 -4 -47 -33 vvcurveto
          -454 61 693 -19 vlineto
          -299 -363 -9 9 -7 8 -5 7 rlinecurve
          -266 339 rlineto
          -19 -693 61 454 hlineto
          30 -4 40 -4 33 vhcurveto
          23 -36 28 -40 22 -27 98 -121 rcurveline
          40 -49 66 -59 95 -20 rrcurveto
          endchar
        </CharString>
        <CharString name="N">
          65 callsubr
          hstemhm
          95 61 449 68 callsubr
          hintmask 01011100
          64 callsubr
          hintmask 01101100
          38 callsubr
          hintmask 01011100
          5 callsubr
          hintmask 10011100
          41 -48 54 -57 95 -20 rrcurveto
          endchar
        </CharString>
        <CharString name="Ntilde">
          65 callsubr
          93 89 callsubr
          95 61 449 68 callsubr
          hintmask 01011011
          64 callsubr
          hintmask 01101011
          38 callsubr
          hintmask 01011011
          5 callsubr
          hintmask 10010111
          41 -48 54 -57 95 -20 rrcurveto
          -477 768 -10 callsubr
          hintmask 01011011
          -46 callsubr
          hintmask 01010111
          -3 callsubr
        </CharString>
        <CharString name="O">
          -104 callsubr
          endchar
        </CharString>
        <CharString name="OE">
          528 -10 55 -45 57 276 57 239 55 -55 65 -55 55 hstemhm
          60 61 399 68 callsubr
          hintmask 01101011
          988 -44 callsubr
          245 hlineto
          -3 104 113 -3 35 hhcurveto
          55 61 11 50 36 hvcurveto
          hintmask 01110011
          -33 34 rlineto
          -26 -28 -38 -14 -53 -62 -289 10 -84 hhcurveto
          hintmask 10101011
          -68 callsubr
          hvcurveto
          hintmask 01101011
          79 120 10 0 hvcurveto
          391 hlineto
          hintmask 10100111
          -590 45 rmoveto
          -25 callsubr
          -26 callsubr
          25 45 -1 -1 53 hvcurveto
          -585 vlineto
          -4 -31 -46 -3 -45 hhcurveto
          endchar
        </CharString>
        <CharString name="Oacute">
          -104 callsubr
          -282 380 -32 callsubr
        </CharString>
        <CharString name="Ocircumflex">
          -104 callsubr
          -116 413 -83 callsubr
        </CharString>
        <CharString name="Odieresis">
          80 callsubr
          98 89 hstemhm
          60 61 124 36 callsubr
          120 60 81 callsubr
          hintmask 1010010010000000
          -65 callsubr
          hintmask 1100010010000000
          -82 callsubr
          hintmask 1001010010000000
          -88 callsubr
          hintmask 1100010010000000
          -52 callsubr
          hintmask 1001010010000000
          11 callsubr
          hintmask 1100111110000000
          -430 470 -99 callsubr
        </CharString>
        <CharString name="Ograve">
          -104 callsubr
          -254 420 -18 callsubr
        </CharString>
        <CharString name="Oslash">
          -10 55 -34 -21 649 -29 callsubr
          hintmask 10010110
          -65 callsubr
          hintmask 01100110
          -35 callsubr
          -117 46 -101 79 -63 hvcurveto
          -36 -52 rlineto
          hintmask 10001110
          49 -30 30 53 rlineto
          -27 49 57 -15 64 hhcurveto
          -15 callsubr
          135 -58 99 -41 53 hvcurveto
          48 3 50 15 31 43 rrcurveto
          -644 -348 rmoveto
          hintmask 10100110
          -26 callsubr
          56 52 -5 -3 47 vhcurveto
          -337 -521 rlineto
          hintmask 10001110
          -60 53 -34 81 98 vvcurveto
          554 hmoveto
          -27 callsubr
          -51 -46 12 21 -39 vhcurveto
          332 513 rlineto
          35 -48 46 -84 -117 vvcurveto
          endchar
        </CharString>
        <CharString name="Otilde">
          80 callsubr
          96 89 callsubr
          60 61 554 69 callsubr
          hintmask 10101011
          -65 callsubr
          hintmask 11001011
          -82 callsubr
          hintmask 10011011
          -88 callsubr
          hintmask 11001011
          -52 callsubr
          hintmask 10011011
          11 callsubr
          hintmask 11000111
          -426 423 -10 callsubr
          hintmask 11001011
          -46 callsubr
          hintmask 11000111
          -3 callsubr
        </CharString>
        <CharString name="P">
          68 21 -21 259 55 325 42 callsubr
          289 59 hintmask 00000000
          hintmask 11100110
          312 639 78 callsubr
          -45 -41 2 0 hvcurveto
          -55 vlineto
          0 39 -2 50 55 callsubr
          10 callsubr
          vlineto
          hintmask 11100110
          629 vlineto
          53 callsubr
        </CharString>
        <CharString name="Q">
          -193 52 131 55 -24 -21 639 55 hstemhm
          60 61 554 69 callsubr
          hintmask 11011100
          509 -193 18 callsubr
          27 59 85 rlineto
          9 9 -1 10 hhcurveto
          203 25 callsubr
          -203 -35 callsubr
          hvcurveto
          hintmask 10111100
          -170 97 -136 156 -36 vhcurveto
          -118 -166 43 -33 42 61 99 -33 rlineto
          hintmask 11011100
          75 callsubr
          -111 832 rmoveto
          166 111 -122 -175 -69 callsubr
          26 callsubr
          121 166 hvcurveto
          endchar
        </CharString>
        <CharString name="R">
          101 21 -21 297 55 287 42 callsubr
          282 69 callsubr
          hintmask 11100110
          571 hmoveto
          -90 216 -21 49 -25 35 -44 20 rlinecurve
          77 24 49 61 91 vvcurveto
          114 -83 84 -119 10 callsubr
          297 96 vlineto
          91 44 -45 -74 29 hvcurveto
          70 -178 rlineto
          hintmask 11100110
          -193 639 rmoveto
          88 57 -56 -87 -89 -60 -55 -83 hvcurveto
          -139 277 hlineto
          53 callsubr
        </CharString>
        <CharString name="S">
          42 -10 55 591 55 hstem
          70 62 298 62 vstem
          256 636 rmoveto
          39 38 -2 23 hhcurveto
          53 38 6 50 36 hvcurveto
          -33 34 rlineto
          -26 -28 -21 -9 -45 -19 -31 2 -40 hhcurveto
          -120 -76 -70 -84 -136 103 -35 91 -34 hvcurveto
          85 -32 81 -34 -97 vvcurveto
          -93 -75 -31 -85 -84 -68 36 31 -50 vhcurveto
          -33 -48 rlineto
          -41 56 82 -33 86 hhcurveto
          117 116 48 131 131 -104 48 -91 33 hvcurveto
          -84 30 -81 27 99 vvcurveto
          55 45 44 79 vhcurveto
          endchar
        </CharString>
        <CharString name="T">
          79 21 -21 627 57 hstem
          254 61 vstem
          554 684 rmoveto
          -539 -57 239 -627 61 627 239 hlineto
          endchar
        </CharString>
        <CharString name="Thorn">
          38 21 -21 129 55 325 55 120 -20 hstem
          95 61 278 59 vstem
          285 564 rmoveto
          -41 -55 -4 -3 -33 hvcurveto
          127 -61 -684 61 130 vlineto
          23 65 -1 41 hhcurveto
          55 callsubr
          hvcurveto
          -3 -55 78 callsubr
          hvcurveto
          -38 -66 1 -22 hhcurveto
          317 vlineto
          3 33 56 4 37 hhcurveto
          endchar
        </CharString>
        <CharString name="U">
          -89 callsubr
          endchar
        </CharString>
        <CharString name="Uacute">
          -89 callsubr
          198 39 -32 callsubr
        </CharString>
        <CharString name="Ucircumflex">
          -89 callsubr
          364 72 -83 callsubr
        </CharString>
        <CharString name="Udieresis">
          225 -10 55 639 -20 105 89 hstem
          90 61 50 36 callsubr
          53 -90 callsubr
          50 129 -99 callsubr
        </CharString>
        <CharString name="Ugrave">
          -89 callsubr
          226 79 -18 callsubr
        </CharString>
        <CharString name="V">
          169 -14 53 655 -20 hstem
          35 594 vstem
          408 -8 rmoveto
          221 685 -57 17 -212 -655 -53 5 -30 35 -16 57 rlinecurve
          -167 558 -59 -15 167 -558 rlineto
          -67 20 47 -68 87 hhcurveto
          15 20 60 callsubr
          endchar
        </CharString>
        <CharString name="W">
          482 -14 53 656 -20 21 -20 hstemhm
          463 68 callsubr
          hintmask 10110000
          380 -8 rmoveto
          114 255 57 -144 rlineto
          -64 25 42 -53 81 hhcurveto
          15 20 60 callsubr
          186 687 -57 17 -179 -657 -41 4 -28 21 -22 54 rlinecurve
          -86 203 rlineto
          249 -61 -249 vlineto
          -126 -282 -54 4 -25 34 -15 59 rlinecurve
          hintmask 11010000
          -144 559 -59 -15 144 -559 rlineto
          -68 17 42 -67 85 hhcurveto
          hintmask 10110000
          15 20 60 callsubr
          endchar
        </CharString>
        <CharString name="X">
          96 21 -21 694 -20 hstem
          50 496 vstem
          116 hmoveto
          142 332 12 -3 60 -14 35 -27 23 -57 rlinecurve
          94 -231 rlineto
          64 hlineto
          -99 246 -13 32 -21 39 -36 28 rlinecurve
          146 333 -58 16 -142 -321 -9 3 -65 16 -26 35 -19 49 rlinecurve
          -83 218 -58 -16 82 -217 10 -28 20 -39 31 -29 rlinecurve
          -156 -365 rlineto
          endchar
        </CharString>
        <CharString name="Y">
          -60 callsubr
          endchar
        </CharString>
        <CharString name="Yacute">
          -60 callsubr
          -89 461 -32 callsubr
        </CharString>
        <CharString name="Ydieresis">
          32 callsubr
          94 89 hstemhm
          121 89 36 61 35 89 hintmask 00000000
          hintmask 11011010
          39 callsubr
          hintmask 11101010
          15 callsubr
          hintmask 11011010
          -37 callsubr
          hintmask 11011111
          -16 551 -81 callsubr
        </CharString>
        <CharString name="Z">
          51 0 57 570 57 hstem
          40 471 vstem
          40 hmoveto
          471 57 -379 hlineto
          359 614 rlineto
          13 -431 -57 339 vlineto
          -359 -614 rlineto
          endchar
        </CharString>
        <CharString name="a">
          2 -14 callsubr
          hstem
          40 76 callsubr
          vstem
          200 -107 callsubr
          -59 hlineto
          -83 -3 -66 -45 -79 hhcurveto
          endchar
        </CharString>
        <CharString name="aacute">
          -78 callsubr
          38 525 -49 callsubr
        </CharString>
        <CharString name="acircumflex">
          -78 callsubr
          201 572 -84 callsubr
        </CharString>
        <CharString name="acute">
          62 callsubr
          185 567 -49 callsubr
        </CharString>
        <CharString name="adieresis">
          12 -14 callsubr
          110 89 hstemhm
          50 57 -9 36 callsubr
          -50 40 callsubr
          hintmask 11101001
          -97 callsubr
          hintmask 11110110
          -112 620 -99 callsubr
        </CharString>
        <CharString name="ae">
          326 34 callsubr
          -23 51 176 52 -49 49 hstemhm
          66 callsubr
          284 57 hintmask 00000000
          hintmask 11001111
          210 -10 rmoveto
          98 65 52 72 13 hvcurveto
          -81 31 64 -43 103 hhcurveto
          -76 callsubr
          118 hlineto
          -41 callsubr
          -78 -59 -44 -64 -34 hvcurveto
          64 -16 -43 44 -89 hhcurveto
          -68 -68 -30 -34 -39 hvcurveto
          hintmask 10110111
          -86 callsubr
          hvcurveto
          hintmask 11001111
          -94 69 -49 91 vhcurveto
          363 469 -73 callsubr
          -363 -417 rmoveto
          -65 -38 25 66 hvcurveto
          hintmask 10101111
          81 79 15 75 vhcurveto
          97 -52 hlineto
          hintmask 11001111
          -87 -67 -48 -81 vhcurveto
          endchar
        </CharString>
        <CharString name="agrave">
          12 -14 callsubr
          hstem
          66 callsubr
          vstem
          -70 callsubr
          73 559 -30 callsubr
        </CharString>
        <CharString name="ampersand">
          116 -10 52 -24 -21 585 52 hstemhm
          60 57 3 65 320 53 hintmask 00000000
          hintmask 10110100
          596 38 rmoveto
          -91 85 rlineto
          35 55 18 68 69 vvcurveto
          42 -53 -40 vlineto
          -56 -13 -55 -27 -47 vhcurveto
          -151 142 rlineto
          hintmask 10101100
          -58 53 -71 53 73 vvcurveto
          55 26 47 79 34 35 -4 -4 52 vhcurveto
          52 vlineto
          4 -45 -29 4 -40 hhcurveto
          -120 -57 -70 -84 -53 21 -40 30 -35 hvcurveto
          hintmask 10110100
          -75 -37 -36 -77 -72 vvcurveto
          -109 86 -67 109 93 72 35 54 51 vhcurveto
          hintmask 01110100
          89 -82 rlineto
          -277 255 rmoveto
          hintmask 10110100
          149 -138 rlineto
          -44 -41 -59 -28 -77 hhcurveto
          -74 -64 48 80 55 29 60 64 29 hvcurveto
          endchar
        </CharString>
        <CharString name="apostrophe">
          -24 callsubr
        </CharString>
        <CharString name="aring">
          12 -14 callsubr
          39 43 119 44 hstemhm
          50 57 45 49 104 49 4 55 81 callsubr
          hintmask 1111111010000000
          -97 callsubr
          43 505 rmoveto
          hintmask 1111111100000000
          61 40 44 60 47 callsubr
          hvcurveto
          hintmask 1111111010000000
          -60 39 -42 62 vhcurveto
          hintmask 1111111100000000
          20 callsubr
        </CharString>
        <CharString name="asciicircum">
          30 328 287 hstem
          75 370 vstem
          250 615 rmoveto
          -175 -252 48 -33 135 194 137 -196 50 35 -175 252 rlineto
          endchar
        </CharString>
        <CharString name="asciitilde">
          30 250 89 callsubr
          55 410 hintmask 00000000
          hintmask 01100000
          104 249 -10 callsubr
          hintmask 10100000
          -46 callsubr
          hintmask 01100000
          -3 callsubr
        </CharString>
        <CharString name="asterisk">
          -75 694 -20 hstem
          181 53 vstem
          238 694 rmoveto
          -60 hlineto
          6 -116 -105 41 -19 -57 106 -28 -68 -82 48 -36 62 96 61 -94 49 34 -67 81 104 29 -17 57 -107 -42 rlineto
          endchar
        </CharString>
        <CharString name="at">
          269 -59 48 99 45 -25 41 90 38 80 43 102 47 hstemhm
          90 54 130 47 114 46 150 53 81 callsubr
          hintmask 1101111111000000
          547 133 rmoveto
          -29 -37 18 63 hvcurveto
          92 vlineto
          60 -32 34 -68 -32 -38 -16 -15 -25 vhcurveto
          22 -36 rlineto
          13 24 23 11 26 hhcurveto
          35 19 -21 -35 hvcurveto
          -24 -40 vlineto
          -59 -62 -21 -62 hvcurveto
          hintmask 1011111111000000
          -56 36 -30 48 48 28 27 35 11 vhcurveto
          hintmask 1101111111000000
          -53 9 35 -29 58 hhcurveto
          68 69 57 111 173 -118 120 -178 -185 -113 -133 -183 -175 119 -117 179 82 87 26 14 40 hvcurveto
          -14 45 rlineto
          -12 -37 -71 -25 -87 hhcurveto
          -144 -100 97 150 155 95 111 149 142 101 -94 -150 -89 -49 -36 -35 hvcurveto
          hintmask 1011111111000000
          -178 16 rmoveto
          -28 -20 19 26 35 39 10 35 hvcurveto
          39 hlineto
          -48 -6 -28 -42 -31 hhcurveto
          endchar
        </CharString>
        <CharString name="atilde">
          12 -14 callsubr
          102 90 callsubr
          66 callsubr
          hintmask 00000000
          hintmask 11101110
          -70 callsubr
          -105 567 -10 callsubr
          hintmask 11110110
          -45 callsubr
          hintmask 11101110
          -4 callsubr
        </CharString>
        <CharString name="b">
          63 9 callsubr
          96 callsubr
          306 57 vstem
          290 508 rmoveto
          -65 -55 -28 -47 -30 hvcurveto
          293 -55 -716 vlineto
          0 66 -20 119 44 callsubr
          vhcurveto
          7 callsubr
        </CharString>
        <CharString name="backslash">
          -98 77 callsubr
          50 282 vstem
          50 93 callsubr
          218 -820 rlineto
          64 hlineto
          -219 820 rlineto
          endchar
        </CharString>
        <CharString name="bar">
          63 callsubr
          93 callsubr
          -820 61 820 vlineto
          endchar
        </CharString>
        <CharString name="braceleft">
          -141 261 55 hstemhm
          93 61 -41 68 callsubr
          hintmask 11000000
          279 -127 rmoveto
          -81 22 -44 14 61 vvcurveto
          hintmask 10100000
          49 20 114 67 vvcurveto
          60 -48 22 -18 6 vhcurveto
          19 7 47 23 59 67 -20 114 49 vvcurveto
          hintmask 11000000
          61 44 14 81 22 vhcurveto
          -14 46 rlineto
          -79 -24 -93 -8 -113 vvcurveto
          hintmask 10100000
          -77 20 -108 -43 vvcurveto
          -54 -83 -7 0 vhcurveto
          -55 vlineto
          0 83 -7 -54 -43 -20 -108 -77 vvcurveto
          hintmask 11000000
          -113 93 -8 79 -24 vhcurveto
          endchar
        </CharString>
        <CharString name="braceright">
          -141 261 55 hstemhm
          175 61 -41 68 callsubr
          hintmask 10100000
          84 -173 rmoveto
          79 24 93 8 113 vvcurveto
          hintmask 11000000
          77 -20 108 43 vvcurveto
          54 83 7 0 vhcurveto
          55 vlineto
          0 -83 7 54 43 20 108 77 vvcurveto
          hintmask 10100000
          113 -93 8 -79 24 vhcurveto
          -14 -46 rlineto
          81 -22 44 -14 -61 vvcurveto
          hintmask 11000000
          -49 -20 -114 -67 vvcurveto
          -61 48 -22 18 -6 vhcurveto
          -19 -6 -47 -23 -59 -67 20 -114 -49 vvcurveto
          hintmask 10100000
          -61 -44 -14 -81 -22 vhcurveto
          endchar
        </CharString>
        <CharString name="bracketleft">
          79 callsubr
          50 61 vstem
          50 93 callsubr
          -924 238 57 -177 810 177 57 vlineto
          endchar
        </CharString>
        <CharString name="bracketright">
          79 callsubr
          217 61 vstem
          40 93 callsubr
          -57 177 -810 -177 -57 238 924 vlineto
          endchar
        </CharString>
        <CharString name="brokenbar">
          63 callsubr
          300 rmoveto
          -370 61 370 vlineto
          80 vmoveto
          370 -61 -370 vlineto
          endchar
        </CharString>
        <CharString name="bullet">
          -121 230 169 hstem
          100 169 vstem
          100 314 rmoveto
          -47 39 -37 45 48 37 37 47 46 -37 39 -48 -45 -39 -39 -46 vhcurveto
          endchar
        </CharString>
        <CharString name="c">
          -55 9 callsubr
          -8 -20 hstemhm
          60 57 hintmask 00000000
          hintmask 11010000
          41 callsubr
          hintmask 10110000
          52 vlineto
          hintmask 11010000
          52 callsubr
          -164 84 -93 130 63 57 26 32 41 hvcurveto
          -26 42 rlineto
          -27 -42 -44 -21 -47 hhcurveto
          86 callsubr
        </CharString>
        <CharString name="ccedilla">
          -55 88 callsubr
          37 57 51 54 callsubr
          -8 -20 hstemhm
          60 57 121 53 5 40 callsubr
          hintmask 11110101
          41 callsubr
          hintmask 11101101
          52 vlineto
          hintmask 11110110
          52 callsubr
          -149 68 -90 110 -15 hvcurveto
          -96 vlineto
          hintmask 11110101
          -19 callsubr
          hintmask 11110110
          73 callsubr
          57 vlineto
          56 4 50 24 38 29 -26 42 rcurveline
          -27 -42 -44 -21 -47 hhcurveto
          hintmask 11110101
          86 callsubr
        </CharString>
        <CharString name="cedilla">
          343 88 callsubr
          103 hstemhm
          247 53 5 40 callsubr
          hintmask 11100000
          247 hmoveto
          -103 vlineto
          hintmask 11010000
          -19 callsubr
          hintmask 11100000
          73 callsubr
          66 vlineto
          endchar
        </CharString>
        <CharString name="cent">
          20 79 52 408 55 hstem
          75 57 118 61 vstem
          250 93 callsubr
          -155 vlineto
          -144 -13 -31 -141 -106 vvcurveto
          -147 67 -90 108 -17 vhcurveto
          -151 61 149 vlineto
          56 5 56 23 37 29 -26 42 rcurveline
          -36 -24 -45 -18 -42 -5 rrcurveto
          412 vlineto
          104 -7 rlineto
          52 vlineto
          -32 3 -38 2 -34 2 rrcurveto
          155 vlineto
          -179 -412 rmoveto
          103 27 94 91 8 vhcurveto
          -408 vlineto
          -75 18 -43 70 115 vvcurveto
          endchar
        </CharString>
        <CharString name="circumflex">
          30 580 188 hstem
          103 314 vstem
          417 614 -84 callsubr
        </CharString>
        <CharString name="colon">
          -177 -11 113 284 113 hstem
          120 113 vstem
          120 442 rmoveto
          -72 callsubr
          -397 vmoveto
          -72 callsubr
          endchar
        </CharString>
        <CharString name="comma">
          -23 callsubr
        </CharString>
        <CharString name="copyright">
          276 -60 47 103 46 222 46 97 48 hstem
          80 54 130 52 316 54 vstem
          316 248 rmoveto
          57 16 53 54 22 33 -2 -3 28 vhcurveto
          47 vlineto
          2 -26 -34 2 -23 hhcurveto
          -100 -22 -91 -67 -100 52 -56 80 38 36 17 20 28 hvcurveto
          -22 38 rlineto
          -17 -25 -26 -12 -23 hhcurveto
          -54 -32 40 72 hvcurveto
          68 -308 -56 callsubr
        </CharString>
        <CharString name="currency">
          198 55 53 359 54 hstem
          115 63 332 61 vstem
          103 -10 rmoveto
          105 105 rlineto
          -24 37 42 -16 56 hhcurveto
          55 43 18 24 37 hvcurveto
          107 -107 43 44 -104 104 rlineto
          31 39 16 48 63 vvcurveto
          63 -15 48 -31 39 vhcurveto
          103 104 -43 44 -106 -106 rlineto
          24 -37 -44 17 -55 hhcurveto
          -56 -41 -17 -24 -37 hvcurveto
          -106 106 -43 -44 103 -104 rlineto
          -31 -39 -17 -49 -63 vvcurveto
          -63 16 -49 31 -39 vhcurveto
          -102 -102 rlineto
          118 254 rmoveto
          108 65 71 101 101 65 -69 -108 -107 -65 -75 -101 -100 -66 72 108 vhcurveto
          endchar
        </CharString>
        <CharString name="d">
          68 9 callsubr
          -9 -20 hstemhm
          50 57 307 55 59 callsubr
          263 -10 rmoveto
          71 59 33 55 28 hvcurveto
          8 -33 15 -31 30 -22 34 33 rcurveline
          -38 callsubr
          583 -55 vlineto
          hintmask 10111000
          -228 vlineto
          hintmask 11011000
          4 -31 -44 5 -56 hhcurveto
          46 callsubr
          hvcurveto
          52 vmoveto
          70 callsubr
          55 51 -7 -3 24 hvcurveto
          -258 vlineto
          -99 -81 -47 -70 vhcurveto
          endchar
        </CharString>
        <CharString name="degree">
          -125 396 49 170 49 hstem
          50 54 157 54 vstem
          183 396 rmoveto
          79 53 57 78 78 -54 55 -79 -80 -52 -57 -78 -78 53 -55 80 hvcurveto
          219 vmoveto
          47 31 -35 -50 -51 -32 -34 -47 -47 -31 34 51 50 32 35 47 hvcurveto
          endchar
        </CharString>
        <CharString name="dieresis">
          30 618 89 hstem
          105 36 callsubr
          vstem
          105 662 -99 callsubr
        </CharString>
        <CharString name="divide">
          -18 97 93 78 51 77 93 hstem
          189 93 vstem
          50 319 rmoveto
          -51 372 51 vlineto
          -233 123 rmoveto
          -31 callsubr
          -299 vmoveto
          -31 callsubr
          endchar
        </CharString>
        <CharString name="dollar">
          67 77 callsubr
          137 105 58 135 vstem
          242 93 callsubr
          -88 vlineto
          -103 -10 -64 -65 -77 vvcurveto
          -119 81 -41 86 -28 vhcurveto
          -275 vlineto
          -69 8 -57 30 -43 27 -33 -48 rcurveline
          51 -38 73 -30 78 -5 rrcurveto
          -61 58 62 vlineto
          103 8 94 51 118 vvcurveto
          131 -102 34 -95 30 vhcurveto
          242 vlineto
          66 -9 54 -29 42 -26 33 48 rcurveline
          -50 36 -70 30 -75 6 rrcurveto
          88 vlineto
          135 -581 rmoveto
          -84 -61 -33 -74 -6 vhcurveto
          257 vlineto
          72 -24 63 -30 -80 vvcurveto
          -298 341 rmoveto
          50 38 41 67 7 vhcurveto
          -224 vlineto
          -59 23 -46 33 70 vvcurveto
          endchar
        </CharString>
        <CharString name="dotlessi">
          -6 callsubr
          endchar
        </CharString>
        <CharString name="e">
          -100 callsubr
          endchar
        </CharString>
        <CharString name="eacute">
          -100 callsubr
          -6 108 -49 callsubr
        </CharString>
        <CharString name="ecircumflex">
          -100 callsubr
          157 155 -84 callsubr
        </CharString>
        <CharString name="edieresis">
          1 callsubr
          110 89 hstemhm
          60 57 4 36 callsubr
          -30 57 hintmask 00000000
          hintmask 11101001
          -102 callsubr
          hintmask 11110110
          -156 203 -99 callsubr
        </CharString>
        <CharString name="egrave">
          -100 callsubr
          29 142 -30 callsubr
        </CharString>
        <CharString name="eight">
          87 -16 54 573 55 hstemhm
          65 62 -26 62 250 62 -25 62 hintmask 00000000
          hintmask 11100100
          65 182 rmoveto
          -108 74 -90 150 150 73 90 108 99 -65 51 -64 29 vhcurveto
          hintmask 11011000
          42 28 50 45 67 vvcurveto
          88 -71 77 -116 -116 -71 -75 -90 -64 37 -40 44 -25 vhcurveto
          hintmask 11100100
          -52 -41 -65 -52 -97 vvcurveto
          195 160 rmoveto
          92 -25 98 -31 -102 vvcurveto
          -84 -55 -62 -106 -106 -56 62 84 75 63 49 48 40 vhcurveto
          66 41 rmoveto
          hintmask 11011000
          -64 18 -77 20 73 vvcurveto
          64 49 47 76 76 49 -48 -63 -53 -41 -34 -44 -31 vhcurveto
          hintmask 11100100
          -9 2 -8 3 -7 2 rrcurveto
          endchar
        </CharString>
        <CharString name="emdash">
          97 277 57 hstem
          0 587 vstem
          587 334 rmoveto
          -587 -57 587 hlineto
          endchar
        </CharString>
        <CharString name="endash">
          -63 277 57 hstem
          0 427 vstem
          427 334 rmoveto
          -427 -57 427 hlineto
          endchar
        </CharString>
        <CharString name="equal">
          -18 187 52 108 52 hstem
          60 352 vstem
          60 399 rmoveto
          -52 352 52 vlineto
          -352 -160 rmoveto
          -52 352 52 vlineto
          endchar
        </CharString>
        <CharString name="eth">
          97 9 callsubr
          -11 -20 94 55 hstemhm
          50 57 163 267 -69 58 hintmask 00000000
          hintmask 10111100
          537 626 rmoveto
          -113 hlineto
          -35 107 -58 -18 30 -89 rlineto
          -91 -55 110 hlineto
          25 -74 rlineto
          hintmask 11011100
          7 -36 -46 4 -24 hhcurveto
          -74 callsubr
          hintmask 11011010
          137 90 96 156 52 -10 60 -22 64 hvcurveto
          hintmask 11011100
          -51 153 rlineto
          94 hlineto
          hintmask 11011010
          -100 -166 rmoveto
          20 -58 11 -59 -53 vvcurveto
          -109 -58 -84 -111 -58 callsubr
          23 66 -7 -8 36 vhcurveto
          endchar
        </CharString>
        <CharString name="exclam">
          -220 -11 113 582 -20 hstemhm
          120 56 -49 113 hintmask 00000000
          hintmask 11100000
          176 239 rmoveto
          87 60 358 0 vhcurveto
          -58 hlineto
          0 -58 -358 -87 vvcurveto
          -36 10 -30 0 vhcurveto
          56 12 rlineto
          0 -10 24 30 vvcurveto
          hintmask 11010000
          -49 -194 -39 callsubr
        </CharString>
        <CharString name="exclamdown">
          -220 395 113 hstemhm
          30 113 -49 56 hintmask 00000000
          hintmask 10100000
          94 258 rmoveto
          -87 -60 -358 0 vhcurveto
          58 hlineto
          0 58 358 87 vvcurveto
          36 -10 30 0 vhcurveto
          -56 -12 rlineto
          0 10 -24 -30 vvcurveto
          hintmask 11000000
          49 194 31 callsubr
        </CharString>
        <CharString name="f">
          -97 -229 -21 487 52 108 52 233 52 96 callsubr
          191 57 vstem
          288 289 rmoveto
          -148 108 48 hlineto
          124 76 77 118 75 -47 67 -99 -119 -38 -104 -136 hvcurveto
          -744 55 487 148 vlineto
          -148 260 rmoveto
          98 18 87 84 59 30 -42 -48 -74 -39 -69 -104 vhcurveto
          -48 hlineto
          endchar
        </CharString>
        <CharString name="five">
          24 -10 56 -24 -21 353 56 182 55 -55 61 30 -20 hstemhm
          78 61 266 59 hintmask 00000000
          hintmask 10110111
          83 334 rmoveto
          0 59 20 72 114 77 -34 -110 -100 -57 -64 -120 -89 -79 10 0 vhcurveto
          hintmask 01110111
          -55 vlineto
          hintmask 10110111
          0 95 -11 76 153 80 93 123 141 -91 63 -144 -51 -39 -10 0 vhcurveto
          192 28 vlineto
          126 119 4 0 hvcurveto
          hintmask 10101111
          57 vlineto
          hintmask 10110111
          0 -120 -6 -125 -53 -38 10 26 -28 vhcurveto
          -33 -34 16 -23 22 -14 25 -9 rlinecurve
          -265 vlineto
          endchar
        </CharString>
        <CharString name="four">
          96 21 -21 95 callsubr
          359 -20 hstem
          440 61 vstem
          130 653 rmoveto
          -60 -416 rlineto
          370 -237 61 653 -61 -359 -301 hlineto
          52 359 rlineto
          endchar
        </CharString>
        <CharString name="fraction">
          -113 21 -21 653 -20 hstem
          50 277 vstem
          269 -21 callsubr
          endchar
        </CharString>
        <CharString name="g">
          100 -257 52 204 56 104 53 -30 41 227 48 -42 52 hstemhm
          25 55 5 55 -3 55 264 57 2 55 81 callsubr
          hintmask 1101101000100000
          25 111 rmoveto
          -49 26 -28 39 -16 vhcurveto
          hintmask 1110100100100000
          -2 -22 -3 -45 -42 vvcurveto
          -126 123 -40 116 117 129 39 127 124 -118 22 -113 vhcurveto
          -49 -48 -3 -41 hhcurveto
          hintmask 1101101000100000
          -70 -51 8 54 53 62 15 52 12 11 -1 -1 10 hvcurveto
          hintmask 1110100101000000
          -14 28 33 -7 37 hhcurveto
          109 79 66 108 50 -17 41 -28 29 hvcurveto
          91 -6 rlineto
          51 -165 vlineto
          hintmask 1101010010100000
          6 -21 -23 4 -25 hhcurveto
          -109 -79 -66 -109 -45 13 -37 23 -28 hvcurveto
          hintmask 1101101000100000
          -84 -3 -64 -39 -70 vvcurveto
          hintmask 1110100100100000
          192 -112 rmoveto
          42 42 3 33 hhcurveto
          92 89 -13 -80 -93 -104 -21 -87 -121 -63 41 73 52 2 32 1 11 hvcurveto
          -4 24 25 -1 25 hhcurveto
          hintmask 1110010011000000
          107 457 rmoveto
          80 52 -48 -74 -74 -52 -48 -80 -81 -51 48 74 74 51 48 81 hvcurveto
          endchar
        </CharString>
        <CharString name="germandbls">
          22 72 callsubr
          -23 -21 684 52 hstemhm
          85 55 90 61 40 57 31 58 hintmask 00000000
          hintmask 11011111
          85 -250 rmoveto
          55 hlineto
          hintmask 10111111
          248 vlineto
          hintmask 11011111
          -3 31 51 -5 62 hhcurveto
          117 76 67 98 hvcurveto
          199 -186 -45 128 61 97 5 99 vvcurveto
          78 -47 54 -99 -119 -38 -104 -136 vhcurveto
          55 3 rmoveto
          98 18 87 84 59 30 -32 -48 vhcurveto
          -67 -101 -2 -96 -176 189 47 -153 vvcurveto
          -69 -46 -44 -81 -90 -47 6 2 -15 vhcurveto
          endchar
        </CharString>
        <CharString name="grave">
          62 callsubr
          357 601 -30 callsubr
        </CharString>
        <CharString name="greater">
          -99 80 370 hstem
          60 300 vstem
          360 265 rmoveto
          -266 185 -34 -49 198 -138 -196 -136 32 -47 rlineto
          endchar
        </CharString>
        <CharString name="guillemotleft">
          125 91 callsubr
          60 485 vstem
          335 60 -55 callsubr
          247 41 -55 callsubr
          endchar
        </CharString>
        <CharString name="guillemotright">
          125 91 callsubr
          70 485 vstem
          317 19 -54 callsubr
          -173 -41 -54 callsubr
          endchar
        </CharString>
        <CharString name="guilsinglleft">
          -85 91 callsubr
          60 275 vstem
          335 60 -55 callsubr
          endchar
        </CharString>
        <CharString name="guilsinglright">
          -85 91 callsubr
          70 275 vstem
          107 19 -54 callsubr
          endchar
        </CharString>
        <CharString name="h">
          52 21 -21 456 52 96 callsubr
          276 55 vstem
          487 0 callsubr
          -64 -56 -28 -60 -43 vhcurveto
          306 -55 -726 55 355 vlineto
          14 callsubr
        </CharString>
        <CharString name="hyphen">
          7 277 57 hstem
          100 297 vstem
          397 334 rmoveto
          -297 -57 297 hlineto
          endchar
        </CharString>
        <CharString name="i">
          -254 67 callsubr
          131 93 hstemhm
          68 93 -66 55 87 callsubr
          -77 callsubr
          hintmask 11110000
          -21 157 rmoveto
          -31 callsubr
          endchar
        </CharString>
        <CharString name="iacute">
          -9 callsubr
          -3 55 rmoveto
          107 139 -50 33 -90 -148 rlineto
          endchar
        </CharString>
        <CharString name="icircumflex">
          -6 callsubr
          169 109 rmoveto
          -89 122 rlineto
          21 -15 -18 11 -15 hhcurveto
          -15 -18 -11 -21 -15 hvcurveto
          -89 -123 43 -29 94 128 95 -128 rlineto
          endchar
        </CharString>
        <CharString name="idieresis">
          58 callsubr
          133 89 hstemhm
          -38 89 44 55 -27 89 hintmask 00000000
          hintmask 11111000
          -77 callsubr
          -127 157 rmoveto
          -105 callsubr
          hintmask 11110100
          161 -92 callsubr
        </CharString>
        <CharString name="igrave">
          -9 callsubr
          35 79 rmoveto
          -90 148 -50 -33 107 -139 rlineto
          endchar
        </CharString>
        <CharString name="j">
          -252 -229 -21 755 -20 131 93 hstemhm
          70 93 -66 55 87 callsubr
          57 94 callsubr
          -34 callsubr
          -603 55 603 vlineto
          55 -11 61 -50 36 vhcurveto
          hintmask 11110000
          -21 157 rmoveto
          -31 callsubr
          endchar
        </CharString>
        <CharString name="k">
          37 21 -21 200 52 207 49 96 callsubr
          272 57 vstem
          487 hmoveto
          -67 146 -13 27 -19 24 -26 17 rlinecurve
          62 20 45 43 79 vvcurveto
          94 -73 58 -99 -75 -51 -40 -59 -31 vhcurveto
          317 -55 -726 55 200 118 vlineto
          8 hlineto
          1 hlineto
          55 -3 28 -31 21 -46 54 -120 rcurveline
          -128 459 rmoveto
          73 42 -41 -62 -47 -17 -57 -137 hvcurveto
          -116 hlineto
          103 58 104 97 vhcurveto
          endchar
        </CharString>
        <CharString name="l">
          -245 12 -21 96 callsubr
          vstem
          85 143 rmoveto
          -55 11 -61 50 -36 vhcurveto
          34 33 rlineto
          -26 28 -14 38 53 vvcurveto
          583 -55 vlineto
          endchar
        </CharString>
        <CharString name="less">
          -99 80 370 hstem
          30 300 vstem
          30 265 rmoveto
          266 -185 34 49 -198 138 196 136 -32 47 rlineto
          endchar
        </CharString>
        <CharString name="logicalnot">
          -50 264 58 hstem
          338 62 vstem
          338 147 rmoveto
          62 175 -360 -58 298 hlineto
          endchar
        </CharString>
        <CharString name="m">
          327 57 callsubr
          hstemhm
          90 55 245 55 246 56 hintmask 00000000
          hintmask 11011100
          445 hmoveto
          347 vlineto
          10 vlineto
          67 35 47 32 62 hhcurveto
          68 34 12 callsubr
          53 hlineto
          -18 46 -6 38 44 65 9 59 95 vvcurveto
          102 -63 59 -96 -54 -61 -29 -64 -39 vhcurveto
          62 -22 -53 31 -65 hhcurveto
          -64 -56 -30 -61 -36 hvcurveto
          hintmask 10111100
          -8 34 -15 32 -31 22 -20 callsubr
          5 vlineto
          hintmask 11011100
          61 27 62 37 54 hhcurveto
          65 37 -36 -84 hvcurveto
          -336 vlineto
          endchar
        </CharString>
        <CharString name="macron">
          30 627 57 hstem
          97 326 vstem
          423 684 rmoveto
          -326 -57 326 hlineto
          endchar
        </CharString>
        <CharString name="minus">
          -48 265 57 hstem
          50 342 vstem
          50 322 rmoveto
          -57 342 57 vlineto
          endchar
        </CharString>
        <CharString name="multiply">
          12 75 376 hstem
          60 382 vstem
          399 76 rmoveto
          43 43 -149 149 142 142 -41 41 -142 -143 -142 143 -43 -43 142 -143 -149 -149 41 -41 149 150 rlineto
          endchar
        </CharString>
        <CharString name="n">
          57 57 callsubr
          hstemhm
          90 55 276 55 59 callsubr
          13 callsubr
          hintmask 10111000
          17 callsubr
          hintmask 11011000
          14 callsubr
        </CharString>
        <CharString name="nine">
          99 -10 52 -23 -21 264 55 291 55 hstemhm
          70 61 324 64 hintmask 00000000
          hintmask 10111100
          519 327 rmoveto
          190 -65 146 -171 -148 -65 -85 -125 -113 60 -78 153 76 63 21 14 33 vhcurveto
          -150 -5 -50 -105 -148 hhcurveto
          -34 -45 4 4 -52 hvcurveto
          hintmask 01111100
          -52 vlineto
          hintmask 10111100
          -4 45 39 -4 40 hhcurveto
          165 109 75 262 hvcurveto
          -237 -10 rmoveto
          -103 -48 46 88 91 36 66 115 107 61 -105 -152 5 hvcurveto
          -13 -33 -69 -21 -71 hhcurveto
          endchar
        </CharString>
        <CharString name="ntilde">
          57 57 callsubr
          125 90 callsubr
          90 55 268 55 -47 40 callsubr
          hintmask 11001101
          13 callsubr
          hintmask 10101101
          17 callsubr
          hintmask 11001101
          63 46 46 38 71 hhcurveto
          76 37 -38 -82 hvcurveto
          hintmask 11001110
          8 callsubr
          -312 609 -10 callsubr
          hintmask 11010110
          -45 callsubr
          hintmask 11001101
          -4 callsubr
        </CharString>
        <CharString name="numbersign">
          -26 21 -21 184 54 107 54 hstem
          40 384 vstem
          40 238 rmoveto
          -54 66 vlineto
          -36 -184 rlineto
          58 hlineto
          36 184 rlineto
          93 hlineto
          -36 -184 rlineto
          58 hlineto
          37 184 rlineto
          83 54 -72 hlineto
          20 107 rlineto
          77 54 -65 hlineto
          35 179 rlineto
          -58 hlineto
          -35 -179 rlineto
          -93 hlineto
          35 179 rlineto
          -58 hlineto
          -36 -179 rlineto
          -84 -54 72 hlineto
          -20 -107 rlineto
          79 107 rmoveto
          92 hlineto
          -20 -107 rlineto
          -92 hlineto
          endchar
        </CharString>
        <CharString name="o">
          -94 callsubr
          endchar
        </CharString>
        <CharString name="oacute">
          -94 callsubr
          -6 111 -49 callsubr
        </CharString>
        <CharString name="ocircumflex">
          -94 callsubr
          157 158 -84 callsubr
        </CharString>
        <CharString name="odieresis">
          107 9 callsubr
          110 89 82 callsubr
          36 36 callsubr
          37 -95 callsubr
          -156 206 -99 callsubr
        </CharString>
        <CharString name="oe">
          454 34 callsubr
          204 52 -49 49 hstemhm
          51 callsubr
          52 283 57 hintmask 00000000
          hintmask 11101110
          299 -10 rmoveto
          101 74 51 80 37 hvcurveto
          -85 30 65 -46 106 hhcurveto
          -67 callsubr
          -51 55 103 -12 hvcurveto
          117 hlineto
          -41 callsubr
          -90 -65 -58 -81 -31 hvcurveto
          84 -36 -75 55 -105 hhcurveto
          -96 callsubr
          hintmask 11011110
          402 3 -43 callsubr
          -120 hlineto
          103 1 61 104 97 hhcurveto
          endchar
        </CharString>
        <CharString name="ograve">
          -94 callsubr
          29 145 -30 callsubr
        </CharString>
        <CharString name="one">
          -102 21 -21 509 52 hstem
          217 61 vstem
          270 669 rmoveto
          -49 -32 -34 -24 -42 -24 rrcurveto
          -19 -34 -31 -9 -29 hhcurveto
          -10 -9 1 2 -10 hvcurveto
          -12 -43 rlineto
          -8 18 18 -4 18 hhcurveto
          38 38 14 18 32 hvcurveto
          14 8 15 11 16 13 rrcurveto
          -573 61 669 vlineto
          endchar
        </CharString>
        <CharString name="onehalf">
          193 0 43 201 43 296 61 callsubr
          378 44 hintmask 00000000
          hintmask 11010011
          439 -21 callsubr
          -34 -653 -40 callsubr
          hintmask 11100111
          -244 658 rmoveto
          -14 -9 rlineto
          -16 -26 -27 -12 -32 -33 callsubr
          vlineto
          hintmask 11101011
          286 vlineto
          endchar
        </CharString>
        <CharString name="onequarter">
          205 0 138 -44 44 445 61 callsubr
          404 46 hintmask 00000000
          hintmask 10010011
          439 -21 callsubr
          10 -373 rmoveto
          hintmask 01100111
          71 callsubr
          hlineto
          hintmask 10100111
          -94 46 280 -46 vlineto
          hintmask 01100111
          85 callsubr
          -333 383 -1 callsubr
          vlineto
          hintmask 01101011
          286 vlineto
          endchar
        </CharString>
        <CharString name="ordfeminine">
          -182 412 40 88 37 79 42 hstem
          40 46 112 45 vstem
          123 412 rmoveto
          45 28 25 33 11 hvcurveto
          3 -21 9 -20 24 -18 25 26 rcurveline
          -15 17 -10 24 24 vvcurveto
          104 vlineto
          58 -31 34 -67 -31 -37 -16 -15 -25 vhcurveto
          22 -35 rlineto
          13 23 23 11 25 hhcurveto
          34 19 -21 -34 hvcurveto
          -24 -39 vlineto
          -58 -61 -20 -61 -55 36 -29 47 hvcurveto
          10 40 rmoveto
          -27 -20 18 26 34 39 10 34 hvcurveto
          38 hlineto
          -47 -6 -27 -41 -31 hhcurveto
          endchar
        </CharString>
        <CharString name="ordmasculine">
          -141 410 45 199 45 hstem
          35 49 182 48 vstem
          174 410 rmoveto
          85 55 62 84 83 -55 60 -85 -84 -55 -61 -84 -83 55 -61 84 hvcurveto
          244 vmoveto
          56 36 -38 -59 -60 -36 -42 -56 -54 -36 41 60 60 36 38 54 hvcurveto
          endchar
        </CharString>
        <CharString name="oslash">
          107 -10 52 -31 -21 466 52 -19 -20 84 callsubr
          hintmask 10101100
          -42 callsubr
          hvcurveto
          hintmask 10011100
          83 -32 72 -54 46 vhcurveto
          27 38 rlineto
          hintmask 01101100
          -49 30 -23 -38 rlineto
          17 -34 -39 10 -44 hhcurveto
          -150 -99 28 callsubr
          -84 31 -71 54 -46 hvcurveto
          -26 -37 rlineto
          hintmask 10101100
          49 -30 22 38 rlineto
          -17 34 40 -10 45 hhcurveto
          466 vmoveto
          33 30 -6 -11 25 hvcurveto
          -225 -348 rlineto
          -36 36 -19 54 69 vvcurveto
          123 76 83 116 vhcurveto
          191 -204 rmoveto
          -124 -76 -86 -115 -34 -30 5 12 -25 vhcurveto
          225 348 rlineto
          36 -35 19 -53 -67 vvcurveto
          endchar
        </CharString>
        <CharString name="otilde">
          107 9 callsubr
          102 55 -20 55 84 callsubr
          hintmask 11011100
          -103 callsubr
          -147 153 -10 callsubr
          hintmask 11101100
          -45 callsubr
          hintmask 11011100
          -4 callsubr
        </CharString>
        <CharString name="p">
          68 72 callsubr
          -22 -21 457 52 -3 -20 hstemhm
          90 55 306 57 hintmask 00000000
          hintmask 11010110
          295 508 rmoveto
          -71 -59 -33 -54 -28 hvcurveto
          hintmask 10101110
          -8 33 -16 29 -29 22 -34 -33 rcurveline
          -34 callsubr
          -603 55 249 vlineto
          hintmask 11010110
          -4 31 44 -5 55 hhcurveto
          44 callsubr
          hvcurveto
          7 callsubr
        </CharString>
        <CharString name="paragraph">
          -41 557 60 hstem
          200 59 82 58 vstem
          341 -75 rmoveto
          58 689 hlineto
          2 -76 -21 1 -29 hhcurveto
          -172 -81 -50 -136 -113 60 -53 120 -15 hvcurveto
          -325 59 632 82 vlineto
          endchar
        </CharString>
        <CharString name="parenleft">
          -107 -161 911 hstem
          50 61 vstem
          333 -118 rmoveto
          -129 74 -93 175 163 vvcurveto
          164 93 175 129 74 vhcurveto
          -25 43 rlineto
          -175 -97 -83 -178 -181 vvcurveto
          -180 83 -178 175 -97 vhcurveto
          endchar
        </CharString>
        <CharString name="parenright">
          -77 -161 911 hstem
          302 61 vstem
          105 -161 rmoveto
          175 97 83 178 180 vvcurveto
          181 -83 178 -175 97 vhcurveto
          -25 -43 rlineto
          129 -74 93 -175 -164 vvcurveto
          -163 -93 -175 -129 -74 vhcurveto
          endchar
        </CharString>
        <CharString name="percent">
          260 -10 40 -9 -21 247 40 79 40 217 40 -10 -20 hstemhm
          100 54 132 54 150 54 132 54 81 callsubr
          hintmask 1011101111000000
          220 366 -17 callsubr
          hintmask 0111011111000000
          275 30 -28 callsubr
          hintmask 1011101111000000
          57 -663 -17 callsubr
          endchar
        </CharString>
        <CharString name="period">
          -177 -11 113 hstem
          100 113 vstem
          100 45 -39 callsubr
        </CharString>
        <CharString name="periodcentered">
          -197 266 113 hstem
          90 113 vstem
          90 322 -39 callsubr
        </CharString>
        <CharString name="plus">
          -18 268 51 hstem
          208 56 vstem
          208 107 23 callsubr
        </CharString>
        <CharString name="plusminus">
          -18 0 52 216 51 hstem
          208 56 vstem
          50 52 rmoveto
          -52 372 52 vlineto
          -214 55 23 callsubr
        </CharString>
        <CharString name="q">
          68 72 callsubr
          414 52 -20 -20 hstemhm
          55 57 306 40 callsubr
          hintmask 11101100
          473 -250 rmoveto
          hintmask 11011100
          738 vlineto
          hintmask 11101100
          0 -66 20 -119 46 callsubr
          65 55 28 46 30 vhcurveto
          -314 vlineto
          -150 292 rmoveto
          70 callsubr
          54 51 -6 -4 24 hvcurveto
          -276 vlineto
          -87 -9 -76 -41 -65 hhcurveto
          endchar
        </CharString>
        <CharString name="question">
          -60 -11 113 541 52 hstemhm
          147 59 -45 113 89 57 59 callsubr
          363 517 rmoveto
          hintmask 11101000
          -140 -216 18 -156 vvcurveto
          -36 10 -30 0 vhcurveto
          59 12 rlineto
          0 -10 24 30 107 214 -2 170 30 callsubr
          hintmask 11011000
          86 46 -46 -80 hvcurveto
          -202 -472 -39 callsubr
        </CharString>
        <CharString name="questiondown">
          -60 -198 52 541 113 hstemhm
          10 57 89 113 -45 59 hintmask 00000000
          hintmask 11110000
          67 -20 rmoveto
          hintmask 11101000
          140 216 -18 156 vvcurveto
          36 -10 30 0 vhcurveto
          -59 -12 rlineto
          0 10 -24 -30 -107 -214 2 -170 vvcurveto
          -106 54 -75 142 40 89 4 4 45 vhcurveto
          52 vlineto
          -4 -52 -95 -4 -34 hhcurveto
          hintmask 11110000
          -86 -46 46 80 hvcurveto
          202 472 31 callsubr
        </CharString>
        <CharString name="quotedbl">
          -208 492 192 hstem
          55 62 48 62 vstem
          60 492 43 callsubr
          120 -192 43 callsubr
          endchar
        </CharString>
        <CharString name="quotedblbase">
          -116 -160 245 hstem
          100 64 61 64 vstem
          100 52 -53 callsubr
        </CharString>
        <CharString name="quotedblleft">
          -116 460 245 hstem
          85 64 61 64 vstem
          274 553 -36 callsubr
          -125 60 -36 callsubr
          endchar
        </CharString>
        <CharString name="quotedblright">
          -116 695 -20 hstem
          100 64 61 64 vstem
          100 662 -53 callsubr
        </CharString>
        <CharString name="quoteleft">
          -241 460 245 hstem
          85 64 vstem
          149 553 -36 callsubr
          endchar
        </CharString>
        <CharString name="quoteright">
          -24 callsubr
        </CharString>
        <CharString name="quotesinglbase">
          -23 callsubr
        </CharString>
        <CharString name="quotesingle">
          -318 492 192 hstem
          55 62 vstem
          60 492 43 callsubr
          endchar
        </CharString>
        <CharString name="r">
          -126 21 -21 455 53 -8 -20 25 -20 hstemhm
          90 40 callsubr
          hintmask 10101000
          344 500 rmoveto
          hintmask 11001000
          0 -28 8 -31 -66 -45 -30 -61 -35 vhcurveto
          hintmask 10011000
          -8 34 -16 31 -31 23 -20 callsubr
          4 vlineto
          hintmask 11001000
          61 35 44 37 54 hhcurveto
          36 30 -7 0 hvcurveto
          endchar
        </CharString>
        <CharString name="registered">
          276 117 47 225 40 118 46 85 48 hstem
          80 54 157 48 117 48 128 54 vstem
          387 593 rmoveto
          -19 -33 -5 -13 hhcurveto
          -24 -20 9 15 -15 hvcurveto
          -29 -29 17 -22 20 -11 20 -5 rlinecurve
          -305 48 149 22 vlineto
          49 24 -29 -29 11 hvcurveto
          32 -85 47 20 -38 92 -8 18 -13 18 -20 8 rlinecurve
          31 11 28 34 41 vvcurveto
          61 -47 44 -70 vhcurveto
          -48 -51 rmoveto
          0 23 5 24 42 28 -23 -36 -37 -26 -22 -33 vhcurveto
          -58 hlineto
          45 -312 -56 callsubr
        </CharString>
        <CharString name="ring">
          30 547 43 119 44 hstem
          159 49 104 49 vstem
          260 547 rmoveto
          61 40 44 60 47 callsubr
          -60 39 -42 62 hvcurveto
          20 callsubr
        </CharString>
        <CharString name="s">
          -73 9 callsubr
          -6 -20 hstemhm
          63 58 198 58 59 callsubr
          35 48 rmoveto
          -32 41 62 -26 66 hhcurveto
          88 85 37 98 hvcurveto
          188 -256 -64 138 vvcurveto
          36 29 33 52 34 41 -2 -4 52 vhcurveto
          hintmask 10111000
          52 vlineto
          hintmask 11011000
          4 -45 -35 2 -40 hhcurveto
          -90 -56 -57 -64 hvcurveto
          -187 256 64 -139 vvcurveto
          -61 -50 -22 -57 -64 -50 25 23 -35 vhcurveto
          endchar
        </CharString>
        <CharString name="section">
          -75 7 -21 hstemhm
          65 62 -32 65 95 65 -32 62 hintmask 00000000
          hintmask 11001000
          350 281 rmoveto
          hintmask 10101000
          134 -190 12 101 vvcurveto
          51 45 19 106 22 vhcurveto
          -13 53 rlineto
          -129 -20 -74 -45 -80 vvcurveto
          -36 12 -27 19 -23 vhcurveto
          hintmask 11010000
          -13 -5 -48 -26 -86 -134 190 -12 -101 vvcurveto
          -51 -45 -19 -106 -22 vhcurveto
          13 -53 rlineto
          129 20 74 45 80 vvcurveto
          36 -13 27 -19 23 vhcurveto
          hintmask 11001000
          13 5 49 26 86 vvcurveto
          -62 hmoveto
          -47 -25 -21 -18 -9 vhcurveto
          -54 40 -64 27 54 vvcurveto
          46 25 21 18 10 vhcurveto
          54 -40 64 -28 -53 vvcurveto
          endchar
        </CharString>
        <CharString name="semicolon">
          -177 386 113 hstemhm
          120 113 -90 64 hintmask 00000000
          hintmask 11000000
          120 442 rmoveto
          -72 callsubr
          hintmask 10100000
          23 -390 rmoveto
          -87 callsubr
        </CharString>
        <CharString name="seven">
          -28 21 -21 593 55 -55 60 30 -20 hstemhm
          20 407 hintmask 00000000
          hintmask 10111000
          427 653 rmoveto
          hintmask 11011000
          -84 -109 -5 -62 hhcurveto
          -53 -38 9 26 -28 hvcurveto
          -33 -34 rlineto
          -50 36 61 -6 55 hhcurveto
          42 69 1 2 65 hvcurveto
          -239 -596 rlineto
          64 hlineto
          hintmask 10111000
          254 645 rlineto
          endchar
        </CharString>
        <CharString name="six">
          99 -10 55 291 55 220 52 -8 -20 hstemhm
          70 63 325 68 callsubr
          hintmask 11101100
          70 326 rmoveto
          -190 65 -146 171 148 65 85 125 113 -60 78 -153 -77 -62 -21 -14 -34 vhcurveto
          150 6 49 105 149 hhcurveto
          34 45 -4 -4 52 hvcurveto
          hintmask 11011100
          52 vlineto
          hintmask 11101100
          4 -45 -39 4 -40 hhcurveto
          -165 -109 -75 -262 hvcurveto
          237 10 rmoveto
          103 48 -46 -88 -91 -36 -66 -115 -108 -60 105 152 -6 hvcurveto
          12 34 69 22 71 hhcurveto
          endchar
        </CharString>
        <CharString name="slash">
          -98 77 callsubr
          50 282 vstem
          269 93 callsubr
          -219 -820 rlineto
          64 hlineto
          218 820 rlineto
          endchar
        </CharString>
        <CharString name="space">
          -190 endchar
        </CharString>
        <CharString name="sterling">
          6 -13 57 259 57 251 52 -8 -20 hstemhm
          117 61 87 callsubr
          117 124 rmoveto
          -72 -31 -44 0 vhcurveto
          51 -21 rlineto
          0 13 16 12 30 vhcurveto
          74 -24 rlineto
          75 callsubr
          36 39 14 29 40 hvcurveto
          -25 49 16 callsubr
          -72 25 rlineto
          1 11 1 11 13 vvcurveto
          179 154 57 -154 125 vlineto
          80 46 46 86 34 35 -4 -4 52 vhcurveto
          hintmask 11011000
          52 vlineto
          hintmask 11101000
          4 -45 -29 4 -40 hhcurveto
          -142 -58 -72 -106 hvcurveto
          -125 -82 -57 82 vlineto
          endchar
        </CharString>
        <CharString name="t">
          -92 -10 52 401 55 158 -20 hstem
          95 55 vstem
          95 143 rmoveto
          -118 57 -35 63 69 78 41 17 21 vhcurveto
          -26 42 rlineto
          -14 -23 -60 -34 -49 hhcurveto
          -41 -34 23 78 hvcurveto
          300 158 55 -158 6 vlineto
          55 -11 61 -50 36 vhcurveto
          -34 -33 rlineto
          -34 callsubr
          endchar
        </CharString>
        <CharString name="thorn">
          43 21 -21 96 52 308 52 96 callsubr
          286 57 vstem
          280 508 rmoveto
          -60 -51 -27 -44 -29 hvcurveto
          289 -55 -726 55 104 vlineto
          -4 29 41 -4 51 hhcurveto
          134 88 88 119 114 -73 91 -130 hvcurveto
          -52 vmoveto
          97 49 -75 -80 -91 -66 -62 -100 -50 -48 7 3 -22 hvcurveto
          180 vlineto
          80 13 67 38 60 hhcurveto
          endchar
        </CharString>
        <CharString name="three">
          9 -10 55 -23 -21 321 55 234 52 hstemhm
          347 57 -24 59 hintmask 00000000
          hintmask 10111000
          347 495 rmoveto
          -106 -93 -12 -94 vhcurveto
          -21 -55 19 hlineto
          hintmask 10110100
          55 50 7 15 40 hvcurveto
          30 -26 47 -53 -77 vvcurveto
          -106 -66 -37 -111 -89 -79 10 0 vhcurveto
          hintmask 01110100
          -54 vlineto
          hintmask 10110100
          0 95 -11 76 145 88 62 132 99 -53 60 -34 29 vhcurveto
          hintmask 10111000
          33 26 19 39 55 vvcurveto
          106 -54 65 -142 -40 -79 49 callsubr
          85 4 34 hhcurveto
          86 46 -36 -80 hvcurveto
          endchar
        </CharString>
        <CharString name="threequarters">
          224 0 138 -44 44 231 43 88 44 72 42 -5 -20 hstemhm
          225 43 -31 46 365 46 81 callsubr
          hintmask 1011010110000000
          458 -21 callsubr
          10 -373 rmoveto
          hintmask 0111100110000000
          71 callsubr
          hlineto
          hintmask 1011100110000000
          -94 46 280 -46 vlineto
          hintmask 0111101010000000
          85 callsubr
          -346 300 rmoveto
          -32 -32 -4 -32 vhcurveto
          hintmask 0111100110000000
          -22 callsubr
          hintmask 0111101010000000
          -8 callsubr
        </CharString>
        <CharString name="tilde">
          30 610 90 callsubr
          65 390 hintmask 00000000
          hintmask 01100000
          114 609 -10 callsubr
          hintmask 10100000
          -45 callsubr
          hintmask 01100000
          -4 callsubr
        </CharString>
        <CharString name="two">
          1 0 57 554 52 hstem
          25 64 282 57 vstem
          25 hmoveto
          436 57 -372 hlineto
          41 169 298 54 202 30 callsubr
          86 46 -46 -80 hvcurveto
          -175 -346 -61 -236 vvcurveto
          endchar
        </CharString>
        <CharString name="u">
          -101 callsubr
          endchar
        </CharString>
        <CharString name="uacute">
          -101 callsubr
          -193 575 -49 callsubr
        </CharString>
        <CharString name="ucircumflex">
          -101 callsubr
          -30 622 -84 callsubr
        </CharString>
        <CharString name="udieresis">
          46 -10 52 456 37 callsubr
          134 89 hstemhm
          69 55 -15 36 callsubr
          -27 40 callsubr
          hintmask 10111001
          486 25 rmoveto
          -38 callsubr
          hintmask 11011001
          -66 callsubr
          hintmask 10111001
          -85 callsubr
          hintmask 10110110
          -122 670 -81 callsubr
        </CharString>
        <CharString name="ugrave">
          -101 callsubr
          -158 609 -30 callsubr
        </CharString>
        <CharString name="underscore">
          -50 -133 55 hstem
          0 440 vstem
          -78 vmoveto
          -55 440 55 vlineto
          endchar
        </CharString>
        <CharString name="uni00A0">
          -190 endchar
        </CharString>
        <CharString name="uni00AD">
          -98 276 58 hstem
          50 292 vstem
          50 334 rmoveto
          -58 292 58 vlineto
          endchar
        </CharString>
        <CharString name="uni00B2">
          -210 414 43 201 43 hstem
          180 44 vstem
          40 414 -40 callsubr
          endchar
        </CharString>
        <CharString name="uni00B3">
          -222 412 43 88 44 72 42 hstemhm
          165 43 -31 46 hintmask 00000000
          hintmask 11110000
          165 623 rmoveto
          -32 -32 -4 -32 vhcurveto
          hintmask 11101000
          -22 callsubr
          hintmask 11110000
          -8 callsubr
        </CharString>
        <CharString name="uni00B5">
          63 72 callsubr
          456 -20 96 callsubr
          269 55 vstem
          503 25 rmoveto
          -38 callsubr
          -62 callsubr
          -1 336 -55 -748 55 268 hlineto
          -18 26 35 -10 48 hhcurveto
          67 55 31 66 43 hvcurveto
          7 -37 15 -34 33 -24 rrcurveto
          endchar
        </CharString>
        <CharString name="uni00B9">
          -245 624 43 33 -20 hstem
          127 48 vstem
          169 704 -1 callsubr
          286 vlineto
          endchar
        </CharString>
        <CharString name="uni2074">
          -191 508 44 -44 186 hstemhm
          183 46 hintmask 00000000
          hintmask 01100000
          61 694 rmoveto
          hintmask 10100000
          71 callsubr
          -94 46 hlineto
          hintmask 01100000
          280 -46 vlineto
          hintmask 10100000
          -142 -97 vlineto
          hintmask 01100000
          20 142 rlineto
          endchar
        </CharString>
        <CharString name="uni2215">
          -162 -46 690 hstem
          0 328 vstem
          328 644 rmoveto
          -68 hlineto
          -260 -690 rlineto
          68 hlineto
          endchar
        </CharString>
        <CharString name="v">
          26 -14 48 452 -20 37 -20 hstemhm
          35 456 hintmask 00000000
          hintmask 10110000
          336 -8 rmoveto
          hintmask 11010000
          155 494 rlineto
          hintmask 10110000
          -52 17 -148 -469 -52 7 -30 39 -15 56 21 callsubr
          rlineto
          -67 19 43 -68 87 56 callsubr
          endchar
        </CharString>
        <CharString name="w">
          276 -14 48 452 -20 32 -20 25 -20 hstemhm
          362 56 hintmask 00000000
          hintmask 10011000
          321 -8 rmoveto
          68 214 26 -85 rlineto
          -66 20 38 -69 81 56 callsubr
          hintmask 11001000
          130 494 rlineto
          hintmask 10011000
          -52 17 -124 -468 -47 7 -20 40 -19 54 rlinecurve
          -51 145 rlineto
          hintmask 10101000
          217 -56 -217 vlineto
          -85 -247 -50 6 -25 39 -13 57 rlinecurve
          hintmask 10011000
          -90 367 -54 -15 90 -367 rlineto
          -68 17 37 -67 85 56 callsubr
          endchar
        </CharString>
        <CharString name="x">
          -21 21 -21 486 -20 36 -20 hstemhm
          45 389 hintmask 00000000
          hintmask 10110000
          106 hmoveto
          102 238 rlineto
          -1 2 3 -1 2 hhcurveto
          60 -14 33 -27 20 -59 47 -136 rcurveline
          59 hlineto
          -52 151 -12 34 -18 41 -38 27 rlinecurve
          hintmask 11010000
          102 233 rlineto
          hintmask 10110000
          -53 16 -100 -224 rlineto
          -2 -1 0 1 -1 hvcurveto
          -65 16 -21 37 -19 49 -46 121 rcurveline
          -53 -16 45 -120 10 -30 18 -41 31 -29 rlinecurve
          -114 -266 rlineto
          endchar
        </CharString>
        <CharString name="y">
          -64 callsubr
          endchar
        </CharString>
        <CharString name="yacute">
          -64 callsubr
          159 779 -49 callsubr
        </CharString>
        <CharString name="ydieresis">
          24 callsubr
          135 89 hstemhm
          118 36 callsubr
          hintmask 00000000
          hintmask 11011110
          33 callsubr
          hintmask 11101110
          203 636 rlineto
          hintmask 11011110
          -61 callsubr
          230 874 -81 callsubr
        </CharString>
        <CharString name="yen">
          47 0 118 -48 48 44 48 36 53 348 -20 37 -20 hstemhm
          250 54 hintmask 00000000
          hintmask 10110110
          142 210 rmoveto
          -48 108 -44 -108 vlineto
          hintmask 01110110
          -48 108 vlineto
          hintmask 10110110
          -70 54 vlineto
          hintmask 01110110
          70 110 vlineto
          hintmask 10111010
          48 -110 44 110 48 -110 36 vlineto
          16 23 2 4 15 hvcurveto
          144 395 rlineto
          hintmask 10110110
          -57 17 -133 -365 -61 1 -38 36 -22 60 rlinecurve
          -97 269 -59 -15 97 -269 19 -53 39 -55 60 -20 rlinecurve
          -43 vlineto
          endchar
        </CharString>
        <CharString name="z">
          -31 -13 52 407 52 hstem
          30 429 vstem
          344 -13 18 callsubr
          28 273 398 rlineto
          13 -351 -52 257 vlineto
          -295 -433 43 -33 42 61 99 -32 rlineto
          75 callsubr
          endchar
        </CharString>
        <CharString name="zero">
          192 -10 55 563 55 hstem
          70 63 417 62 vstem
          341 -10 rmoveto
          164 107 145 191 191 -107 146 -164 -164 -107 -145 -192 -190 107 -146 164 hvcurveto
          1 618 rmoveto
          124 84 -116 -166 -166 -84 -115 -124 -125 -84 116 165 167 84 115 125 hvcurveto
          endchar
        </CharString>
</ttFont>
